<svg xmlns="http://www.w3.org/2000/svg" xmlns:xlink="http://www.w3.org/1999/xlink" width="245" height="176"><style><![CDATA[.B{fill:#131a6d}.C{fill:#fff}.D{fill:#ff8aa9}.E{fill:#d86689}.F{fill:#96357d}.G{fill:#ffd300}.H{fill:#d236a2}.I{fill:#2d32e2}.J{fill:#ef6295}.K{fill:#601951}.L{fill:#ffc200}]]></style><defs><path id="A" d="M0 0h242.952v7.56H0z"/><path id="B" d="M.046.13H30.13v28.642H.046z"/><path d="M10.806 2.333C9.404 4.836 8.518 4.586 6.978 4.336c-.707-.115-1.552-.23-2.648-.078-1.59.22-3.56 1.228-4.17 3.66-.69 2.758 1.447 5.096 2.94 5.832 2.162 1.065 2.576 2.467 1.56 5.75-1.656 5.354 9.59 2.923 12.095 1.195 1.505-1.04.67-2.878 2.2-3.65 1.316-.67 2.006-.48 2.635-.29.53.16 1.018.32 1.8-.04 2.612-1.197.18-5.11-1.24-6.86.453-1.038-.055-6.286-2.383-6.144-1.137.07-2.032.477-2.497.096-.965-.794-.23-2.76-3.283-3.668-.157-.047-.318-.07-.48-.07-.87 0-1.808.686-2.693 2.265" id="C"/><linearGradient x1="33.3777639%" y1="101.045288%" x2="73.9904682%" y2="-20.2576682%" id="D"><stop stop-color="#d136a1" offset="0%"/><stop stop-color="#4f23c8" offset="100%"/></linearGradient><path d="M1.977 2.38c2.14 1.15 3.574 5.134 2.32 7.5C2.676 12.945.125 13.36.125 13.36s2.29 4.926 3.118 4.733c4.337-1.012 6.795-5.63 6.327-9.867C9.282 5.615 5.986 1.46 2.952.088 2.53.77 2.254 1.585 1.977 2.38" id="E"/><linearGradient x1="63.9155552%" y1="53.7682621%" x2="37.4526502%" y2="48.579584%" id="F"><stop stop-color="#ffd300" offset="0%"/><stop stop-color="#ebb817" offset="100%"/></linearGradient><path d="M3.365.382C1.8.687.31 1.695.14 3.96c-.113 1.496 1.898 9.406 2.95 9.773 2.964 1.032 6.903-.92 7.893-3.27.754-1.792-.483-8.223-2.15-9.653C8.18.245 7.11.082 6.088.082c-1.265 0-2.46.25-2.723.3" id="G"/><linearGradient x1="-0.000367035558%" y1="49.9996307%" x2="99.9996579%" y2="49.9996307%" id="H"><stop stop-color="#ffd300" offset="0%"/><stop stop-color="#ebb817" offset="100%"/></linearGradient><linearGradient x1="50%" y1="37.9066792%" x2="59.5012156%" y2="96.8261448%" id="I"><stop stop-color="#ffe009" offset="0%"/><stop stop-color="#ffd725" offset="33.6175042%"/><stop stop-color="#feae10" offset="100%"/></linearGradient><path d="M16.068.09c-.27 2.427-3.885 5.102-6.633 4.566-3.92-.763-3.53-.956-6.517-2.793C.392.3-1.665 2.626 2.266 7.697c2.307 2.975 7.226 3.61 11.137 1.64 2.4-1.214 4.79-5.863 4.923-9.21a5.28 5.28 0 0 0-.978-.086c-.396 0-.788.034-1.28.05" id="J"/><linearGradient x1="63.5092737%" y1="64.9435731%" x2="46.1673977%" y2="31.952041%" id="K"><stop stop-color="#ffd300" offset="0%"/><stop stop-color="#ebb817" offset="100%"/></linearGradient><path d="M3.686.314c-.68.268-1.677.688-3.107.865s1.06 4.897 1.027 7.08c-.01.662 1.68.397 5.633-2.66.577-.446.262-2.872-1.272-4.66C5.42.297 4.94.112 4.523.112c-.315 0-.593.106-.837.202" id="L"/><linearGradient x1="-45.6399346%" y1="19.0924818%" x2="165.71943%" y2="91.4114258%" id="M"><stop stop-color="#5bfff6" offset="0%"/><stop stop-color="#3d80ff" offset="100%"/></linearGradient><path d="M.804 2.134c-2.028 4.2.977 11.267.432 16.16-.204 1.83 9.4 2.036 11.617.267 1.568-1.246 1.44-5.557 1.398-11.248-.02-2.608-.627-6.243-2.388-7-.178-.076-.622-.04-1.048-.002-.286.025-.563.05-.746.04-.168-.01-.318.1-.357.264C9.445 1.742 8.152 4.863 4.65.04 2.585.498 1.508.673.804 2.134" id="N"/><linearGradient x1="56.7870487%" y1="-38.2909941%" x2="44.7548385%" y2="113.548597%" id="O"><stop stop-color="#5bfff6" offset="0%"/><stop stop-color="#3d80ff" offset="100%"/></linearGradient><path d="M.006 8.163s1.31.54 2.918 1.56c1.262.8 2.643 1.193 3.105.54 2.422-3.42.5-9.2 1.075-10.26C2.37.766.006 8.163.006 8.163" id="P"/><linearGradient x1="63.0100569%" y1="-16.689624%" x2="46.0944031%" y2="96.4245777%" id="Q"><stop stop-color="#5bfff6" offset="0%"/><stop stop-color="#3d80ff" offset="100%"/></linearGradient><linearGradient x1="50%" y1="37.0869993%" x2="59.324702%" y2="100%" id="R"><stop stop-color="#ffe009" offset="0%"/><stop stop-color="#ffd725" offset="33.6175042%"/><stop stop-color="#feae10" offset="100%"/></linearGradient><path d="M.36 3.607c0 2.055-.3 11.096-.3 11.096s3.125.792 5.693.93c3.725.202 6.5-.466 6.5-.466s-.297-11.03-1.014-13.05C10.987 1.41 8.77-.3 8.382.334c-.536.893-1.5 1.24-2.142 1.25-.658.01-1.592-.233-2.306-1.483C3.9.04 3.84.01 3.764.01 2.996.01.36 2.796.36 3.607" id="S"/><linearGradient x1="48.7047427%" y1="121.813198%" x2="53.2081733%" y2="-16.6725409%" id="T"><stop stop-color="#d136a1" offset="0%"/><stop stop-color="#4f23c8" offset="100%"/></linearGradient><linearGradient x1="50%" y1="37.7147874%" x2="59.5012156%" y2="97.5691626%" id="U"><stop stop-color="#ffe009" offset="0%"/><stop stop-color="#ffd725" offset="33.6175042%"/><stop stop-color="#feae10" offset="100%"/></linearGradient><path d="M4 .297C2.06 1.13.977 2.345.842 5.906.807 6.82.608 7.312.1 8.393.967 8.49 2.454 9.505 3.317 9.73c1.416.372 3.34.415 4.76-.003 1.544-.454 2.13-1.24 3.5-2.06-.697-1.195-.92-2.32-1.102-3.06.655 1.592.958 1.697 1.43 2.842l1.072-.64c-.853-.01-1.514-3.262-2.83-4.78C8.27-.153 7.324.47 6.777.483c-.11.003-.3-.107-.6-.217A2.87 2.87 0 0 0 5.124.049C4.8.05 4.41.115 4 .297" id="V"/><linearGradient x1="43.7715834%" y1="19.5666272%" x2="51.9344716%" y2="79.6418615%" id="W"><stop stop-color="#ffd300" offset="0%"/><stop stop-color="#ebb817" offset="100%"/></linearGradient><path d="M.245.712c-1.065 2.936 4.35 4.23 5.76 4.043.663-.088 1.205-1.477 1.728-2.862.5-1.325-.816-1.222-1.49-1.26C3.9.5 2.328.09 1.365.09c-.6 0-.95.154-1.12.622" id="X"/><linearGradient x1="-37.4624088%" y1="29.0631018%" x2="123.26891%" y2="62.5118461%" id="Y"><stop stop-color="#2d31e2" offset="0%"/><stop stop-color="#121a6d" offset="100%"/></linearGradient><path d="M3.808.222C2.042 1.17-.092 12.817.11 15.357c.287 3.59 2.38 6.517 2.307 11.445-.07 4.718-.087 9.592.13 13.276 0 0 1.04.336 1.653.38 1.076.078 1.532-.204 1.532-.204.6-8.176 1.926-11.423 2.7-16.435.812-5.264 1.283-14.674-.85-19.135C6.692 2.827 5.484.11 4.24.11a.9.9 0 0 0-.431.113" id="Z"/><linearGradient x1="49.9998155%" y1="-0.000206383717%" x2="49.9998155%" y2="111.42903%" id="a"><stop stop-color="#d136a1" offset="0%"/><stop stop-color="#4f23c8" offset="100%"/></linearGradient><path d="M3.332.616C2.058 2.22.56 4.622.103 10.476c-.42 5.397 2.94 11.086 2.346 16.366-.422 3.744-.292 8.4.002 12.136a4.2 4.2 0 0 0 1.822.446c1.13 0 1.706-.267 1.706-.267.196-3.737.7-8.306 2.253-11.666 3.004-6.46 1.015-22.292-.07-25.468C7.696.66 6.165.107 4.926.107c-.72 0-1.338.186-1.595.51" id="b"/><linearGradient x1="50.000368%" y1="-0.000230150514%" x2="50.000368%" y2="113.97524%" id="c"><stop stop-color="#d136a1" offset="0%"/><stop stop-color="#4f23c8" offset="100%"/></linearGradient><path d="M5.248 2.718C3.53 2.65 2.823.33 2.7.113 2.05.46.455.927.132 2.302c-.39 1.66 1.43 3.446.8 7.356-.37 2.337 7.514 2.355 7.357-.394-.09-1.587-.26-2.016.528-3.9C9.323 4.177 8.5.21 6.037.113c.302.55.554 2.658-.79 2.604" id="d"/><linearGradient x1="47.6434382%" y1="-18.2505735%" x2="52.3832128%" y2="80.801833%" id="e"><stop stop-color="#2d31e2" offset="0%"/><stop stop-color="#121a6d" offset="100%"/></linearGradient><linearGradient x1="50%" y1="37.0975528%" x2="59.5012156%" y2="99.9591362%" id="f"><stop stop-color="#ffe009" offset="0%"/><stop stop-color="#ffd725" offset="33.6175042%"/><stop stop-color="#feae10" offset="100%"/></linearGradient><path d="M.228.555c-.362 1.043.367 3.61 3.767 4.594.878.254.825.018 1.174-.43.524-.67 1.683-2.08 1.277-2.793C5.938 1.033 3.142.07 1.467.07.824.07.347.212.228.555" id="g"/><linearGradient x1="-41.0657206%" y1="49.4470821%" x2="129.185108%" y2="50.5409917%" id="h"><stop stop-color="#2d31e2" offset="0%"/><stop stop-color="#121a6d" offset="100%"/></linearGradient><path d="M7.594.3C7.5.302 7.378.285 7.233.267 6.56.186 5.38.106 4.058 2.02 2.275 4.606-2.77 19.48 2.296 24.516c1.907 1.896 4.842 2.017 7.142 3.127 4.274 2.063 6.3.733 6.3.733s-1.226-1.594-.725-4.23c2.014-10.602-.822-10.86-1.873-18.54C12.636 1.9 11.326.6 9.83.16c-.316-.093-.6-.127-.855-.127-.7 0-1.16.26-1.38.266" id="i"/><linearGradient x1="52.3378123%" y1="0.0199850595%" x2="49.3939256%" y2="98.8579333%" id="j"><stop stop-color="#2d31e2" offset="0%"/><stop stop-color="#121a6d" offset="100%"/></linearGradient><path d="M.42 4.616c-.63 2.93-.575 8.1 3.53 11.01.453.32 2.87-4.133 1.5-4.785-1.904-.9-1.826-3.515-1.653-4.684.13-.887 1.777-3.63 1.85-4.426.044-.468-.75-1.427-1.566-1.59-.07-.014-.138-.02-.208-.02C2.37.124.736 3.145.42 4.616" id="k"/><linearGradient x1="44.2465241%" y1="3.83098248%" x2="57.2280964%" y2="81.2944316%" id="l"><stop stop-color="#5bfff6" offset="0%"/><stop stop-color="#3bacfb" offset="100%"/></linearGradient><path d="M.056 1.403c.068.862.448 1.625 1.008 1.964.624.377.547.9.84 1.377.792 1.3 1.284.492 1.147-.083-.262-1.096.44-1.632.333-2.41-.093-.68-.472-.283-.845-1.58C2.433.308 2.01.128 1.544.128.82.128-.01.558.056 1.403" id="m"/><linearGradient x1="56.2450102%" y1="2.31309724%" x2="42.3654273%" y2="92.83696%" id="n"><stop stop-color="#2d31e2" offset="0%"/><stop stop-color="#121a6d" offset="100%"/></linearGradient><path d="M2.855.16c-.716.397-.298.572-1.108.78-.76.195-.294 1.393-.977 1.94-.462.37-.74.484-.74.484a2 2 0 0 0 1.551.143c.53-.177.574-.724 1.297-.81.65-.076 1.12-.412 1.373-1.24C4.457.79 3.848.064 3.228.064c-.126 0-.253.03-.373.097" id="o"/><linearGradient x1="63.7739444%" y1="12.7555198%" x2="41.2757026%" y2="89.4666339%" id="p"><stop stop-color="#2d31e2" offset="0%"/><stop stop-color="#121a6d" offset="100%"/></linearGradient><path d="M4.086.2C1.95.758.94 3.954.264 10.015c-.698 6.252 1.81 19.434 2.11 19.434 1.974 0 4.582 1.27 7.312.924 3.307-.42 2.966-.76 2.94-1.566-.25-7.527-1.04-8.744-.057-13.57.718-3.527 1.952-9.938-1.54-14C10.605.757 7.97.005 5.747.005c-.6 0-1.172.055-1.66.185" id="q"/><linearGradient x1="50.0000542%" y1="-2.70482311e-05%" x2="50.0000542%" y2="99.9998338%" id="r"><stop stop-color="#d136a1" offset="0%"/><stop stop-color="#4f23c8" offset="100%"/></linearGradient><path d="M4.168.656c-.844.72-.038 3.672-.745 5.63-.62 1.718-1.58 3.234-2.982 3.796-1.164.467.358 5.16.865 4.932.603-.27 4.215-4.236 5.2-6.804.893-2.33.742-7.062.326-7.627C6.58.24 6.198.12 5.798.12c-.678 0-1.405.345-1.63.538" id="s"/><linearGradient x1="60.188003%" y1="-3.89729398%" x2="44.7829804%" y2="87.5233972%" id="t"><stop stop-color="#5bfff6" offset="0%"/><stop stop-color="#3bacfb" offset="100%"/></linearGradient><linearGradient x1="50%" y1="37.7232976%" x2="59.5012156%" y2="97.5362103%" id="u"><stop stop-color="#ffe009" offset="0%"/><stop stop-color="#ffd725" offset="33.6175042%"/><stop stop-color="#feae10" offset="100%"/></linearGradient><path id="v" d="M19.953 47.604c.01.064-.032.124-.096.135s-.124-.032-.135-.096.04-.078.104-.088.116-.014.127.05"/><path id="w" d="M156.222 48.943c0 .063-.05.114-.114.114s-.114-.05-.114-.114.05-.068.114-.068.114.005.114.068"/></defs><g fill="none" fill-rule="evenodd"><g transform="translate(1 2)"><g transform="translate(0 107)"><mask id="x" class="C"><use xlink:href="#A"/></mask><path d="M239.173 0H3.78a3.78 3.78 0 1 0 0 7.56h235.393a3.78 3.78 0 1 0 0-7.56" fill="#e3f4ff" mask="url(#x)"/></g><g transform="translate(37)"><g transform="translate(0 2.591)"><path d="M140.608 101.4c-.312 0-.474-.148-.616-.278s-.262-.24-.516-.24-.376.11-.516.24-.304.278-.616.278-.474-.148-.616-.278-.262-.24-.516-.24-.376.11-.516.24-.305.278-.617.278-.485-.14-.656-.275c-.157-.125-.306-.242-.563-.242v-.15c.31 0 .485.14.656.275.157.125.306.242.563.242s.376-.11.516-.24.305-.278.617-.278.474.148.617.278.262.24.516.24.375-.11.516-.24.304-.278.617-.278.474.148.616.278.262.24.516.24.375-.11.516-.24.304-.278.616-.278v.15c-.254 0-.375.11-.516.24s-.304.278-.616.278" class="H"/><g class="B"><path d="M15.356.733l-.262-.536.134-.066.262.536-.134.065zm-.66.513l-.133-.066.266-.534.133.066-.266.534zm1.184.56l-.262-.536.134-.066.262.536-.134.065zm-1.716.51l-.133-.067.266-.534.133.066-.266.534zm2.24.563l-.262-.536.134-.065.262.536-.134.065zm-2.77.505l-.133-.067.266-.534.133.067-.266.534zm3.295.567l-.262-.536.134-.066.262.536-.134.065zm-3.828.5l-.133-.066.266-.534.133.066-.266.534zm4.35.57l-.262-.536.134-.066.262.536-.134.066zm-4.883.497l-.133-.067.266-.534.133.066-.266.534zm5.407.575l-.262-.536.134-.065.262.536-.134.065zm-5.94.493l-.133-.067.266-.534.133.067-.266.534zm6.463.58l-.262-.536.134-.066.262.536-.134.066zm-6.995.488l-.133-.066.266-.534.133.066-.266.534zm7.52.583l-.262-.536.134-.066.262.536-.134.066zm-8.05.485l-.133-.067.266-.534.133.066-.266.534zm8.574.587l-.262-.536.134-.065.262.536-.134.065zm-9.316.308l-.02-.148.24-.034.123-.246.133.067-.158.317-.318.045zm10.39.13l-.6-.088.022-.147.6.088-.022.148zM9.05 9.78l-.02-.148.6-.083.02.148-.59.084zm12.75.137l-.6-.088.022-.147.6.088-.022.147zm-13.933.03l-.02-.148.6-.083.02.148-.6.083zm15.112.147l-.6-.088.022-.148.6.088-.022.147zm-16.293.02l-.02-.148.6-.084.02.148-.6.083zm17.473.156l-.6-.088.022-.147.6.088-.022.148zm-18.654.01l-.02-.148.59-.083.02.148-.59.083zm19.834.165l-.6-.088.022-.147.6.088-.022.147zm-21.015.002l-.02-.148.59-.083.02.148-.59.083zm-1.18.167l-.02-.148.6-.083.02.148-.6.083zm23.375.007l-.6-.088.022-.148.6.088-.022.147zm-24.557.16l-.02-.148.59-.083.02.148-.59.083zM27.7 10.8l-.6-.088.022-.147.6.088-.022.147zm-26.917.15l-.02-.148.59-.083.02.148-.59.083zm28.097.025l-.6-.088.022-.148.6.088-.022.147zM.518 11.42L0 10.9l.17-.024.008.057.033-.034.4.403-.105.106zm29.137.164l-.104-.107.36-.348-.44-.066.022-.147.6.088-.02.142.023.024-.43.415zm-28.286.67l-.426-.418.105-.106.426.418-.105.106zm27.43.158l-.104-.107.43-.415.104.107-.43.414zM2.22 13.1l-.426-.418.105-.106.426.418-.105.106zm25.72.15l-.104-.107.43-.415.104.107-.43.415zm-24.87.684l-.426-.418.105-.106.426.418-.105.106zm24.012.145l-.104-.107.43-.415.104.107-.43.415zm-23.16.69l-.426-.418.105-.106.426.418-.105.106zm22.304.138l-.104-.107.43-.415.104.107-.43.415zm-21.453.697l-.426-.418.105-.106.426.418-.105.106zm20.595.132l-.104-.107.43-.415.104.107-.43.415zm-19.744.704l-.426-.418.105-.106.426.418-.105.106zm18.887.125l-.104-.107.43-.415.104.107-.43.415zm-18.036.71l-.426-.418.105-.106.426.418-.105.106zm17.18.12l-.104-.107.43-.415.104.107-.43.414zm-16.328.717l-.426-.418.105-.106.426.418-.105.106zm15.47.112l-.104-.107.43-.415.104.107-.43.415zm-15.263.93l-.147-.026.103-.587.147.026-.103.587zm15.114.133l-.1-.588.147-.025.1.588-.147.025zm-15.32 1.042l-.147-.026.103-.587.147.026-.103.587zm15.518.134l-.1-.588.147-.025.1.588-.147.025zM7.12 21.497l-.147-.026.103-.587.147.026-.103.587zm15.92.136l-.1-.588.147-.025.1.588-.147.025zm-16.127 1.04l-.147-.026.103-.587.147.026-.103.587zm16.324.137l-.1-.588.147-.025.1.588-.147.025zM6.71 23.847l-.147-.026.103-.587.147.026-.103.587zm8.094.116l-.07-.132.333-.173.265.14-.07.132-.195-.104-.264.137zm8.633.023l-.1-.588.147-.025.1.588-.147.025zm-7.12.503l-.527-.28.07-.132.527.28-.07.132zm-2.57.025l-.07-.132.53-.276.07.132-.53.275zm-7.242.508l-.147-.026.103-.587.147.026-.103.587zm10.866.026l-.527-.28.07-.132.527.28-.07.132zm-4.682.017l-.07-.132.53-.276.07.132-.53.276zm10.946.097l-.1-.588.147-.025.1.588-.147.025zm-5.21.445l-.527-.28.07-.132.527.28-.07.132zm-6.793.01l-.07-.132.53-.276.07.132-.53.276zm7.847.55l-.527-.28.07-.132.527.28-.07.132zm-8.905.001l-.07-.132.53-.276.07.132-.53.275zm-4.275.03l-.147-.026.103-.587.147.026-.103.587zm17.534.142l-.1-.588.147-.025.1.588-.147.025zm-14.317.38l-.07-.132.53-.276.07.132-.53.276zm11.016.007l-.527-.28.07-.132.527.28-.07.132zm-12.074.544l-.07-.132.53-.276.07.132-.53.276zm13.128.015l-.527-.28.07-.132.527.28-.07.132zM6.1 27.372l-.147-.026.103-.587.147.026-.103.587zm17.937.143l-.1-.588.147-.025.1.588-.147.025zm-16.63.305l-.07-.132.53-.276.07.132-.53.275zm15.24.023l-.527-.28.07-.132.527.28-.07.132zM6.34 28.37l-.07-.132.53-.276.07.132-.53.276zm17.35.03l-.527-.28.07-.132.527.28-.07.132zm-17.806.144l-.147-.026.103-.587.147.026-.103.587zm18.505.226l-.172-.09.02-.036-.02.003-.092-.545.147-.025.116.694z"/><path d="M51.003.733L50.74.197l.134-.066.262.536-.134.065zm-.66.513l-.133-.066.266-.534.133.066-.266.534zm1.184.56l-.262-.536.134-.066.262.536-.134.065zm-1.716.51l-.133-.067.266-.534.133.066-.266.534zm2.24.563l-.262-.536.134-.065.262.536-.134.065zm-2.77.505l-.133-.067.266-.534.133.067-.266.534zm3.295.567l-.262-.536.134-.066.262.536-.134.065zm-3.828.5l-.133-.066.266-.534.133.066-.266.534zm4.35.57l-.262-.536.134-.066.262.536-.134.066zm-4.883.497l-.133-.067.266-.534.133.066-.266.534zm5.407.575l-.262-.536.134-.065.262.536-.134.065zm-5.94.493l-.133-.067.266-.534.133.067-.266.534zm6.463.58l-.262-.536.134-.066.262.536-.134.066zm-6.995.488l-.133-.066.266-.534.133.066-.266.534zm7.52.583l-.262-.536.134-.066.262.536-.134.066zm-8.05.485l-.133-.067.266-.534.133.066-.266.534zm8.574.587l-.262-.536.134-.065.262.536-.134.065zm-9.316.308l-.02-.148.24-.034.123-.246.133.067-.158.317-.318.045zm10.39.13l-.6-.088.022-.147.6.088-.022.148zm-11.572.038l-.02-.148.6-.083.02.148-.59.084zm12.75.137l-.6-.088.022-.147.6.088-.022.147zm-13.933.03l-.02-.148.6-.083.02.148-.6.083zm15.112.147l-.6-.088.022-.148.6.088-.022.147zm-16.293.02l-.02-.148.6-.084.02.148-.6.083zm17.473.156l-.6-.088.022-.147.6.088-.022.148zm-18.654.01l-.02-.148.59-.083.02.148-.59.083zm19.834.165l-.6-.088.022-.147.6.088-.022.147zm-21.015.002l-.02-.148.59-.083.02.148-.59.083zm-1.18.167l-.02-.148.6-.083.02.148-.6.083zm23.375.007l-.6-.088.022-.148.6.088-.022.147zm-24.557.16l-.02-.148.59-.083.02.148-.59.083zm25.736.016l-.6-.088.022-.147.6.088-.022.147zm-26.917.15l-.02-.148.59-.083.02.148-.59.083zm28.097.025l-.6-.088.022-.148.6.088-.022.147zm-28.362.444l-.518-.508.17-.024.008.057.033-.034.4.403-.105.106zm29.137.164l-.104-.107.36-.348-.44-.066.022-.147.6.088-.02.142.023.024-.43.415zm-28.286.67l-.426-.418.105-.106.426.418-.105.106zm27.43.158l-.104-.107.43-.415.104.107-.43.414zm-26.578.678l-.426-.418.105-.106.426.418-.105.106zm25.72.15l-.104-.107.43-.415.104.107-.43.415zm-24.87.684l-.426-.418.105-.106.426.418-.105.106zm24.012.145l-.104-.107.43-.415.104.107-.43.415zm-23.16.69l-.426-.418.105-.106.426.418-.105.106zm22.304.138l-.104-.107.43-.415.104.107-.43.415zm-21.453.697l-.426-.418.105-.106.426.418-.105.106zm20.595.132l-.104-.107.43-.415.104.107-.43.415zm-19.745.704l-.426-.418.105-.106.426.418-.105.106zm18.887.125l-.104-.107.43-.415.104.107-.43.415zm-18.036.71l-.426-.418.105-.106.426.418-.105.106zm17.18.12l-.104-.107.43-.415.104.107-.43.414zm-16.328.717l-.426-.418.105-.106.426.418-.105.106zm15.47.112l-.104-.107.43-.415.104.107-.43.415zm-15.263.93l-.147-.026.103-.587.147.026-.103.587zm15.114.133l-.1-.588.147-.025.1.588-.147.025zm-15.32 1.042l-.147-.026.103-.587.147.026-.103.587zm15.518.134l-.1-.588.147-.025.1.588-.147.025zm-15.724 1.04l-.147-.026.103-.587.147.026-.103.587zm15.92.136l-.1-.588.147-.025.1.588-.147.025zm-16.127 1.04l-.147-.026.103-.587.147.026-.103.587zm16.324.137l-.1-.588.147-.025.1.588-.147.025zm-16.53 1.038l-.147-.026.103-.587.147.026-.103.587zm8.094.116l-.07-.132.333-.173.265.14-.07.132-.195-.104-.264.137zm8.633.023l-.1-.588.147-.025.1.588-.147.025zm-7.12.503l-.527-.28.07-.132.527.28-.07.132zm-2.57.025l-.07-.132.53-.276.07.132-.53.275zm-7.242.508l-.147-.026.103-.587.147.026-.103.587zm10.866.026l-.527-.28.07-.132.527.28-.07.132zm-4.682.017l-.07-.132.53-.276.07.132-.53.276zm10.946.097l-.1-.588.147-.025.1.588-.147.025zm-5.21.445l-.527-.28.07-.132.527.28-.07.132zm-6.793.01l-.07-.132.53-.276.07.132-.53.276zm7.847.55l-.527-.28.07-.132.527.28-.07.132zm-8.905.001l-.07-.132.53-.276.07.132-.53.275zm-4.275.03l-.147-.026.103-.587.147.026-.103.587zm17.534.142l-.1-.588.147-.025.1.588-.147.025zm-14.317.38l-.07-.132.53-.276.07.132-.53.276zm11.016.007l-.527-.28.07-.132.527.28-.07.132zm-12.074.544l-.07-.132.53-.276.07.132-.53.276zm13.128.015l-.527-.28.07-.132.527.28-.07.132zm-15.493.088l-.147-.026.103-.587.147.026-.103.587zm17.937.143l-.1-.588.147-.025.1.588-.147.025zm-16.63.305l-.07-.132.53-.276.07.132-.53.275zm15.24.023l-.527-.28.07-.132.527.28-.07.132zm-16.297.528l-.07-.132.53-.276.07.132-.53.276zm17.35.03l-.527-.28.07-.132.527.28-.07.132zm-17.806.144l-.147-.026.103-.587.147.026-.103.587zm18.505.226l-.172-.09.02-.036-.02.003-.092-.545.147-.025.116.694z"/><path d="M86.65.733l-.262-.536.134-.066.262.536-.134.065zm-.66.513l-.133-.066.266-.534.133.066-.266.534zm1.184.56l-.262-.536.134-.066.262.536-.134.065zm-1.716.51l-.133-.067.266-.534.133.066-.266.534zm2.24.563l-.262-.536.134-.065.262.536-.134.065zm-2.77.505l-.133-.067.266-.534.133.067-.266.534zm3.295.567l-.262-.536.134-.066.262.536-.134.065zm-3.828.5l-.133-.066.266-.534.133.066-.266.534zm4.35.57l-.262-.536.134-.066.262.536-.134.066zm-4.883.497l-.133-.067.266-.534.133.066-.266.534zm5.407.575l-.262-.536.134-.065.262.536-.134.065zm-5.94.493l-.133-.067.266-.534.133.067-.266.534zm6.463.58l-.262-.536.134-.066.262.536-.134.066zm-6.995.488l-.133-.066.266-.534.133.066-.266.534zm7.52.583l-.262-.536.134-.066.262.536-.134.066zm-8.05.485l-.133-.067.266-.534.133.066-.266.534zm8.574.587l-.262-.536.134-.065.262.536-.134.065zm-9.316.308l-.02-.148.24-.034.123-.246.133.067-.158.317-.318.045zm10.39.13l-.6-.088.022-.147.6.088-.022.148zm-11.572.038l-.02-.148.6-.083.02.148-.59.084zm12.75.137l-.6-.088.022-.147.6.088-.022.147zm-13.933.03l-.02-.148.6-.083.02.148-.6.083zm15.112.147l-.6-.088.022-.148.6.088-.022.147zm-16.293.02l-.02-.148.6-.084.02.148-.6.083zm17.473.156l-.6-.088.022-.147.6.088-.022.148zm-18.654.01l-.02-.148.59-.083.02.148-.59.083zm19.834.165l-.6-.088.022-.147.6.088-.022.147zm-21.015.002l-.02-.148.59-.083.02.148-.59.083zm-1.18.167l-.02-.148.6-.083.02.148-.6.083zm23.375.007l-.6-.088.022-.148.6.088-.022.147zm-24.557.16l-.02-.148.59-.083.02.148-.59.083zm25.736.016l-.6-.088.022-.147.6.088-.022.147zm-26.917.15l-.02-.148.59-.083.02.148-.59.083zm28.097.025l-.6-.088.022-.148.6.088-.022.147zM71.8 11.42l-.518-.508.17-.024.008.057.033-.034.4.403-.105.106zm29.137.164l-.104-.107.36-.348-.44-.066.022-.147.6.088-.02.142.023.024-.43.415zm-28.286.67l-.426-.418.105-.106.426.418-.105.106zm27.43.158l-.104-.107.43-.415.104.107-.43.415zm-26.578.678l-.426-.418.105-.106.426.418-.105.106zm25.72.15l-.104-.107.43-.415.104.107-.43.415zm-24.87.684l-.426-.418.105-.106.426.418-.105.106zm24.012.145l-.104-.107.43-.415.104.107-.43.415zm-23.16.69l-.426-.418.105-.106.426.418-.105.106zm22.304.138l-.104-.107.43-.415.104.107-.43.415zm-21.453.697l-.426-.418.105-.106.426.418-.105.106zm20.595.132l-.104-.107.43-.415.104.107-.43.414zm-19.745.704l-.426-.418.105-.106.426.418-.105.106zm18.887.125l-.104-.107.43-.415.104.107-.43.415zm-18.036.7l-.426-.418.105-.106.426.418-.105.106zm17.18.12l-.104-.107.43-.415.104.107-.43.415zm-16.328.717l-.426-.418.105-.106.426.418-.105.106zm15.47.112l-.104-.107.43-.415.104.107-.43.415zm-15.263.93l-.147-.026.103-.587.147.026-.103.587zm15.114.133l-.1-.588.147-.025.1.588-.147.025zm-15.32 1.042l-.147-.026.103-.587.147.026-.103.587zm15.518.135l-.1-.588.147-.025.1.588-.147.025zm-15.724 1.04l-.147-.026.103-.587.147.026-.103.587zm15.92.136l-.1-.588.147-.025.1.588-.147.025zm-16.127 1.04l-.147-.026.103-.587.147.026-.103.587zm16.324.138l-.1-.588.147-.025.1.588-.147.025zm-16.53 1.037l-.147-.026.103-.587.147.026-.103.587zm8.094.116l-.07-.132.333-.174.264.14-.07.132-.195-.103-.264.137zm8.633.023l-.1-.588.147-.025.1.588-.147.025zm-7.12.503l-.527-.28.07-.132.527.28-.07.132zm-2.57.026l-.07-.132.53-.276.07.132-.53.276zm-7.242.507l-.147-.026.103-.587.147.026-.103.587zm10.866.026l-.527-.28.07-.132.527.28-.07.132zm-4.682.018l-.07-.132.53-.276.07.132-.53.276zm10.946.097l-.1-.588.147-.025.1.588-.147.025zm-5.21.444l-.527-.28.07-.132.527.28-.07.132zm-6.793.01l-.07-.132.53-.276.07.132-.53.276zm7.847.55l-.527-.28.07-.132.527.28-.07.132zm-8.905.001l-.07-.132.53-.275.07.132-.53.276zm-4.275.03l-.147-.026.103-.587.147.026-.103.587zm17.534.142l-.1-.588.147-.025.1.588-.147.025zm-14.317.38l-.07-.132.53-.276.07.132-.53.276zm11.016.007l-.527-.28.07-.132.527.28-.07.132zm-12.074.544l-.07-.132.53-.275.07.132-.53.276zm13.128.015l-.527-.28.07-.132.527.28-.07.132zm-15.493.088l-.147-.026.103-.587.147.026-.103.587zm17.937.144l-.1-.588.147-.025.1.588-.147.025zm-16.63.305l-.07-.132.53-.276.07.132-.53.276zm15.24.023l-.527-.28.07-.132.527.28-.07.132zm-16.298.528l-.07-.132.53-.276.07.132-.53.276zm17.35.03l-.527-.28.07-.132.527.28-.07.132zm-17.806.144l-.147-.026.103-.587.147.026-.103.587zm18.505.227l-.172-.09.02-.036-.02.003-.09-.545.147-.025.116.694z"/><path d="M122.296.733l-.262-.536.134-.066.262.536-.134.065zm-.66.513l-.133-.066.266-.534.133.066-.266.534zm1.184.56l-.262-.536.134-.066.262.536-.134.065zm-1.716.51l-.133-.067.266-.534.133.066-.266.534zm2.24.563l-.262-.536.134-.065.262.536-.134.065zm-2.77.505l-.133-.067.266-.534.133.067-.266.534zm3.295.567l-.262-.536.134-.066.262.536-.134.065zm-3.828.5l-.133-.066.266-.534.133.066-.266.534zm4.35.57l-.262-.536.134-.066.262.536-.134.066zm-4.883.497l-.133-.067.266-.534.133.066-.266.534zm5.407.575l-.262-.536.134-.065.262.536-.134.065zm-5.94.493l-.133-.067.266-.534.133.067-.266.534zm6.463.58l-.262-.536.134-.066.262.536-.134.066zm-6.995.488l-.133-.066.266-.534.133.066-.266.534zm7.52.583l-.262-.536.134-.066.262.536-.134.066zm-8.05.485l-.133-.067.266-.534.133.066-.266.534zm8.574.587l-.262-.536.134-.065.262.536-.134.065zm-9.316.308l-.02-.148.24-.034.123-.246.133.067-.158.317-.318.045zm10.39.13l-.6-.088.022-.147.6.088-.022.148zm-11.572.038l-.02-.148.6-.083.02.148-.59.084zm12.75.137l-.6-.088.022-.147.6.088-.022.147zm-13.933.03l-.02-.148.6-.083.02.148-.6.083zm15.112.147l-.6-.088.022-.148.6.088-.022.147zm-16.293.02l-.02-.148.6-.084.02.148-.6.083zm17.473.156l-.6-.088.022-.147.6.088-.022.148zm-18.654.01l-.02-.148.59-.083.02.148-.59.083zm19.834.165l-.6-.088.022-.147.6.088-.022.147zm-21.015.002l-.02-.148.59-.083.02.148-.59.083zm-1.18.167l-.02-.148.6-.083.02.148-.6.083zm23.375.007l-.6-.088.022-.148.6.088-.022.147zm-24.557.16l-.02-.148.59-.083.02.148-.59.083zm25.736.016l-.6-.088.022-.147.6.088-.022.147zm-26.917.15l-.02-.148.59-.083.02.148-.59.083zm28.097.025l-.6-.088.022-.148.6.088-.022.147zm-28.362.444l-.518-.508.17-.024.008.057.033-.034.4.403-.105.106zm29.137.164l-.104-.107.36-.347-.44-.066.022-.147.6.088-.02.14.023.024-.43.415zm-28.286.67l-.426-.418.105-.106.426.418-.105.106zm27.43.158l-.104-.107.43-.415.104.107-.43.415zm-26.578.678l-.426-.418.105-.106.426.418-.105.106zm25.72.15l-.104-.107.43-.415.104.107-.43.415zm-24.87.685l-.426-.418.105-.106.426.418-.105.106zm24.012.145l-.104-.107.43-.415.104.107-.43.415zm-23.16.69l-.426-.418.105-.106.426.418-.105.106zm22.304.138l-.104-.107.43-.415.104.107-.43.414zm-21.453.698l-.426-.418.105-.106.426.418-.105.106zm20.595.132l-.104-.107.43-.415.104.107-.43.415zm-19.745.704l-.426-.418.105-.106.426.418-.105.106zm18.887.125l-.104-.107.43-.415.104.107-.43.415zm-18.036.71l-.426-.418.105-.106.426.418-.105.106zm17.18.12l-.104-.107.43-.415.104.107-.43.415zm-16.328.717l-.426-.418.105-.106.426.418-.105.106zm15.47.112l-.104-.107.43-.415.104.107-.43.415zm-15.263.93l-.147-.026.103-.587.147.026-.103.587zm15.114.133l-.1-.588.147-.025.1.588-.147.025zm-15.32 1.042l-.147-.026.103-.587.147.026-.103.587zm15.518.134l-.1-.588.147-.025.1.588-.147.025zm-15.723 1.04l-.147-.026.103-.587.147.026-.103.587zm15.92.136l-.1-.588.147-.025.1.588-.147.025zm-16.127 1.04l-.147-.026.103-.587.147.026-.103.587zm16.324.137l-.1-.588.147-.025.1.588-.147.025zm-16.53 1.037l-.147-.026.103-.587.147.026-.103.587zm8.094.116l-.07-.132.333-.173.264.14-.07.132-.195-.103-.264.137zm8.633.023l-.1-.588.147-.025.1.588-.147.025zm-7.12.503l-.527-.28.07-.132.527.28-.07.132zm-2.57.026l-.07-.132.53-.276.07.132-.53.276zm-7.242.508l-.147-.026.103-.587.147.026-.103.587zm10.866.026l-.527-.28.07-.132.527.28-.07.132zm-4.682.017l-.07-.132.53-.276.07.132-.53.275zm10.946.097l-.1-.588.147-.025.1.588-.147.025zm-5.21.445l-.527-.28.07-.132.527.28-.07.132zm-6.793.01l-.07-.132.53-.275.07.132-.53.276zm7.847.55l-.527-.28.07-.132.527.28-.07.132zm-8.905.001l-.07-.132.53-.276.07.132-.53.276zm-4.275.03l-.147-.026.103-.587.147.026-.103.587zm17.534.142l-.1-.588.147-.025.1.588-.147.025zm-14.317.38l-.07-.132.53-.275.07.132-.53.275zm11.016.007l-.527-.28.07-.132.527.28-.07.132zm-12.074.544l-.07-.132.53-.275.07.132-.53.276zm13.128.015l-.527-.28.07-.132.527.28-.07.132zm-15.493.087l-.147-.026.103-.587.147.026-.103.587zm17.937.144l-.1-.588.147-.025.1.588-.147.025zm-16.63.305l-.07-.132.53-.276.07.132-.53.276zm15.24.023l-.527-.28.07-.132.527.28-.07.132zm-16.298.528l-.07-.132.53-.275.07.132-.53.276zm17.35.03l-.527-.28.07-.132.527.28-.07.132zm-17.806.144l-.147-.026.103-.587.147.026-.103.587zm18.505.227l-.172-.09.02-.036-.02.003-.092-.545.147-.025.116.694z"/></g><g transform="translate(142.54)"><mask id="y" class="C"><use xlink:href="#B"/></mask><path d="M15.403.733L15.14.197l.134-.066.262.536-.134.065zm-.66.513l-.133-.066.266-.534.133.066-.266.534zm1.184.56l-.262-.536.134-.066.262.536-.134.065zm-1.716.51l-.133-.067.266-.534.133.066-.266.534zm2.24.563l-.262-.536.134-.065.262.536-.134.065zm-2.77.505l-.133-.067.266-.534.133.067-.266.534zm3.295.567l-.262-.536.134-.066.262.536-.134.065zm-3.828.5l-.133-.066.266-.534.133.066-.266.534zm4.35.57l-.262-.536.134-.066.262.536-.134.066zm-4.883.497l-.133-.067.266-.534.133.066-.266.534zm5.407.575l-.262-.536.134-.065.262.536-.134.065zm-5.94.493l-.133-.067.266-.534.133.067-.266.534zm6.463.58l-.262-.536.134-.066.262.536-.134.066zm-6.995.488l-.133-.066.266-.534.133.066-.266.534zm7.52.583l-.262-.536.134-.066.262.536-.134.066zm-8.05.485l-.133-.067.266-.534.133.066-.266.534zm8.574.587l-.262-.536.134-.065.262.536-.134.065zm-9.316.308l-.02-.148.24-.034.123-.246.133.067-.158.317-.318.045zm10.39.13l-.6-.088.022-.147.6.088-.022.148zM9.096 9.78l-.02-.148.6-.083.02.148-.59.084zm12.75.137l-.6-.088.022-.147.6.088-.022.147zm-13.933.03l-.02-.148.6-.083.02.148-.6.083zm15.112.147l-.6-.088.022-.148.6.088-.022.147zm-16.293.02l-.02-.148.6-.084.02.148-.6.083zm17.473.156l-.6-.088.022-.147.6.088-.022.148zm-18.654.01l-.02-.148.59-.083.02.148-.59.083zm19.834.165l-.6-.088.022-.147.6.088-.022.147zm-21.015.002l-.02-.148.59-.083.02.148-.59.083zm-1.18.167l-.02-.148.6-.083.02.148-.6.083zm23.375.007l-.6-.088.022-.148.6.088-.022.147zM2 10.783l-.02-.148.59-.083.02.148-.59.083zm25.736.016l-.6-.088.022-.147.6.088-.022.147zM.83 10.95l-.02-.148.59-.083.02.148-.59.083zm28.097.025l-.6-.088.022-.148.6.088-.022.147zM.564 11.42L.046 10.9l.17-.024.008.057.033-.034.4.403-.105.106zm29.137.164l-.104-.107.36-.348-.44-.066.022-.147.6.088-.02.142.023.024-.43.415zm-28.286.67l-.426-.418.105-.106.426.418-.105.106zm27.43.158l-.104-.107.43-.415.104.107-.43.414zM2.266 13.1l-.426-.418.105-.106.426.418-.105.106zm25.72.15l-.104-.107.43-.415.104.107-.43.415zm-24.87.684l-.426-.418.105-.106.426.418-.105.106zm24.012.145l-.104-.107.43-.415.104.107-.43.415zm-23.16.69l-.426-.418.105-.106.426.418-.105.106zm22.304.138l-.104-.107.43-.415.104.107-.43.415zm-21.453.697l-.426-.418.105-.106.426.418-.105.106zm20.595.132l-.104-.107.43-.415.104.107-.43.415zm-19.745.704l-.426-.418.105-.106.426.418-.105.106zm18.887.125l-.104-.107.43-.415.104.107-.43.415zm-18.036.71l-.426-.418.105-.106.426.418-.105.106zm17.18.12l-.104-.107.43-.415.104.107-.43.414zm-16.328.717l-.426-.418.105-.106.426.418-.105.106zm15.47.112l-.104-.107.43-.415.104.107-.43.415zm-15.263.93l-.147-.026.103-.587.147.026-.103.587zm15.114.133l-.1-.588.147-.025.1.588-.147.025zm-15.32 1.042l-.147-.026.103-.587.147.026-.103.587zm15.518.134l-.1-.588.147-.025.1.588-.147.025zm-15.724 1.04l-.147-.026.103-.587.147.026-.103.587zm15.92.136l-.1-.588.147-.025.1.588-.147.025zM6.96 22.672l-.147-.026.103-.587.147.026-.103.587zm16.324.137l-.1-.588.147-.025.1.588-.147.025zm-16.53 1.038l-.147-.026.103-.587.147.026-.103.587zm8.094.116l-.07-.132.333-.173.265.14-.07.132-.195-.104-.264.137zm8.633.023l-.1-.588.147-.025.1.588-.147.025zm-7.12.503l-.527-.28.07-.132.527.28-.07.132zm-2.57.025l-.07-.132.53-.276.07.132-.53.275zm-7.242.508l-.147-.026.103-.587.147.026-.103.587zm10.866.026l-.527-.28.07-.132.527.28-.07.132zm-4.682.017l-.07-.132.53-.276.07.132-.53.276zm10.946.097l-.1-.588.147-.025.1.588-.147.025zm-5.21.445l-.527-.28.07-.132.527.28-.07.132zm-6.793.01l-.07-.132.53-.276.07.132-.53.276zm7.847.55l-.527-.28.07-.132.527.28-.07.132zm-8.905.001l-.07-.132.53-.276.07.132-.53.275zm-4.275.03l-.147-.026.103-.587.147.026-.103.587zm17.534.142l-.1-.588.147-.025.1.588-.147.025zm-14.317.38l-.07-.132.53-.276.07.132-.53.276zm11.016.007l-.527-.28.07-.132.527.28-.07.132zm-12.074.544l-.07-.132.53-.276.07.132-.53.276zm13.128.015l-.527-.28.07-.132.527.28-.07.132zm-15.493.088L6 27.346l.103-.587.147.026-.103.587zm17.937.143l-.1-.588.147-.025.1.588-.147.025zm-16.63.305l-.07-.132.53-.276.07.132-.53.275zm15.24.023l-.527-.28.07-.132.527.28-.07.132zm-16.297.528l-.07-.132.53-.276.07.132-.53.276zm17.35.03l-.527-.28.07-.132.527.28-.07.132zm-17.806.144l-.147-.026.103-.587.147.026-.103.587zm18.505.226l-.172-.09.02-.036-.02.003-.092-.545.147-.025.116.694z" mask="url(#y)" class="B"/></g></g><g transform="translate(97.213 44.786)"><mask id="z" class="C"><use xlink:href="#C"/></mask><path d="M10.806 2.333C9.404 4.836 8.518 4.586 6.978 4.336c-.707-.115-1.552-.23-2.648-.078-1.59.22-3.56 1.228-4.17 3.66-.69 2.758 1.447 5.096 2.94 5.832 2.162 1.065 2.576 2.467 1.56 5.75-1.656 5.354 9.59 2.923 12.095 1.195 1.505-1.04.67-2.878 2.2-3.65 1.316-.67 2.006-.48 2.635-.29.53.16 1.018.32 1.8-.04 2.612-1.197.18-5.11-1.24-6.86.453-1.038-.055-6.286-2.383-6.144-1.137.07-2.032.477-2.497.096-.965-.794-.23-2.76-3.283-3.668-.157-.047-.318-.07-.48-.07-.87 0-1.808.686-2.693 2.265" fill="url(#D)" mask="url(#z)"/></g><path d="M117.294 47.612c-.63-.812-.456-.967-1.472-1.47-.086-.042-1.785-.203-1.375 1.27-.07-.248-1.087-.27-1.185-.022-.042.108.495.322.688.43l.9.482c.507.227.815.18 1.354.365.233-.444.847-.622 1.1-1.055" class="D"/><g transform="translate(113.912 46.426)"><mask id="AA" class="C"><use xlink:href="#E"/></mask><path d="M1.977 2.38c2.14 1.15 3.574 5.134 2.32 7.5C2.676 12.945.125 13.36.125 13.36s2.29 4.926 3.118 4.733c4.337-1.012 6.795-5.63 6.327-9.867C9.282 5.615 5.986 1.46 2.952.088 2.53.77 2.254 1.585 1.977 2.38" fill="url(#F)" mask="url(#AA)"/></g><path d="M121.098 62.17c-1.018-1.332-2.328-3.113-4.97-3.38-.668.436-.808.568-1.698.892 1.535.26 3.712 2.12 4.73 4.05.53-.226 1.24-.8 1.94-1.563m1.567-2.364c-.42-1.76-2.677-3.128-4.556-3.315a14.19 14.19 0 0 1-.955 1.354c1.58.42 3.926 1.9 4.77 3.3l.743-1.328zm.778-5.415c-1.38-.2-3.44-.427-4.768-.067-.08.272.004 1.102-.2 1.304 1.393.236 3.596.956 5 1.25.197-.5.006-1.947-.03-2.486m-1.94-3.87L118 51.594l.303 1.1c1.3-.2 2.542-.662 4.143-.763l-.93-1.4zm-2.86-2.92s-1.22 1.456-1.95 1.828c.24.278.5.57.685.886l2.315-1.823s-.926-.934-1.05-.9" class="G"/><path d="M106.38 109.448l-.16 1.324c-.088.84-.014 1.57.3 2.454.102.277-.22.478-.54.246-1.142-.824-1.274-1.95-1.255-2.446l.007-1.388 1.637-.2zm6.545-1.254s.125 1.818.306 2.267.854 1.232 1.463 1.56c.852.46 1.2.208 1.06-.052-.18-.363-.577-.8-.777-1.288-.422-1.052-.245-2.618-.245-2.618l-1.8.13z" class="I"/><g transform="translate(106.457 59.547)"><mask id="AB" class="C"><use xlink:href="#G"/></mask><path d="M3.365.382C1.8.687.31 1.695.14 3.96c-.113 1.496 1.898 9.406 2.95 9.773 2.964 1.032 6.903-.92 7.893-3.27.754-1.792-.483-8.223-2.15-9.653C8.18.245 7.11.082 6.088.082c-1.265 0-2.46.25-2.723.3" fill="url(#H)" mask="url(#AB)"/></g><path d="M113.255 59.9c-.4-.16-1.74-.113-1.804-.098-.715.17-.715.823-.192 1.146.782.484 1.714.27 2.132.034.427-.24.435-.86-.137-1.083" class="B"/><path d="M109.565 55.65c.04-.213.284-.25.526-.12.2.108.203.76-.1.773-.328.013-.487-.286-.416-.654" class="E"/><path d="M111.213 60.28c-.048-1.396-.403-2.62-.194-3.028.296-.58 1.966-.766 1.974-.007.006.553.382 2.57.23 3.264-.123.57-1.986.517-2.01-.23" class="D"/><path d="M112.993 57.267l.047.518c-.198.673-.53 1.1-1.074 1.108-.303-.001-.758-.245-.968-.663l-.09-.666 2.084-.297z" class="E"/><path d="M112.973 56.755l.07.942c-.223.376-.525.836-1.22.792-.29-.018-.684-.157-.894-.575l-.04-.86 2.084-.297z" class="B"/><path d="M110.215 53.67c.344-.514 1.628-1.236 2.506-.368.722.714.828 1.873.77 2.754-.062.946-.475 2.197-1.59 2.24-1.17.045-1.565-.906-1.744-1.776-.206-.997-.5-2.017.057-2.85" class="D"/><path d="M111.51 55.684c-.104.668-.306.553-.3.728.005.128.34.235.445.162.286-.2-.116-1.082-.146-.9" class="J"/><path d="M113.237 55.42c.128-.306.395-.42.57-.21.145.173-.09.873-.403.864-.202-.006-.312-.307-.167-.652" class="E"/><g class="H"><path d="M109.234 53.29c.426-1.28 2.08-.58 1.354.59-.2.323-.348.224-.33.875.022.728-.228 1.077-.412 1.192-.6.374-1.308-.264-.795-.943.334-.442.005-1.182.182-1.713"/><path d="M114.39 54.5c.164-.698.253-1.396-.453-1.62-1.034-.33-.34-1.065-1.34-1.055-1.08.01-1.283.937-2.212.705-.344-.086-.544.086-.174.466.43.443.455 1.947 1.73 2.19.437.084 1.14-.044 1.358-.04.658.01.434.607.896.632.528.03.733-.58.194-1.28"/></g><path d="M107.915 70.498s.953.824 2.316-2.342c1.2-2.766-1.658-7.803-1.658-7.803l1.317-.568s2.475 5.827 5.017 5.7c2.155-.1-1.055-5.9-1.055-5.9s1.224.392 1.604.906c1.606 2.173 2.214 6.033 2.544 8.283.7 4.775 1.055 8.127-1.07 19.534-1.815 9.746-1.72 21.194-1.72 21.194l-2.498-.038s-1.94-4.315-1.7-13.285l.132-5.62s-.975 2.934-2.25 7.393c-.978 3.42-2.2 12.158-2.2 12.158h-2.4s-.436-10.786.275-18.392c.567-6.066 3.368-21.24 3.368-21.24m3.67-13.374c.063.047.33-.01.302-.178 0 0-.416.092-.302.178M111.2 55.2c.045-.05-.216-.15-.382-.088-.112.042-.16.18-.16.18s.103-.07.27-.07c.112-.002.243.01.27-.02m-.284.323c-.002-.06.045-.108.104-.1s.108.045.1.104-.037.08-.097.083-.116-.018-.117-.077m1.196-.065c-.002-.06.044-.1.103-.1s.1.044.1.103-.05.083-.1.085-.102-.02-.104-.078" class="B"/><g class="C"><path d="M114.01 70.28l-.02-.148c1.29-.168 1.798-.983 2-1.637.268-.874.082-1.747-.105-1.912-.028-.024-.04-.02-.045-.017-1.764.788-2.713.676-3.28.6-.247-.03-.41-.048-.533.014-.1.115-.023 1.453.576 2.122l-.11.1c-.534-.597-.714-1.746-.633-2.173.02-.1.05-.156.1-.182.164-.083.355-.06.618-.03.552.065 1.475.174 3.2-.597.04-.018.118-.036.205.04.245.216.43 1.15.15 2.067-.213.696-.754 1.563-2.122 1.74"/><path d="M113.096 67.764a2.87 2.87 0 0 1-.794-.093l.043-.143c.658.198 2.358.13 4.123-.896l.075.13c-1.304.758-2.58 1.003-3.447 1.003m-5.596 9.428l-.057-.138c1.545-.64 1.362-3.216 1.36-3.242l.15-.012c.01.1.193 2.7-1.452 3.4m3.907 12.84l-.143-.043 1.846-5.947.142.045-1.845 5.944"/></g><g class="B"><path d="M112.32 55.3a1.74 1.74 0 0 1-.808-.198c-.537-.28-.94-.838-1.194-1.657l.142-.044c.242.778.618 1.305 1.118 1.567a1.59 1.59 0 0 0 1.116.135l.045.142c-.013.004-.176.054-.42.054"/><path d="M112.383 54.735c-.15 0-.344-.028-.546-.134-.36-.19-.63-.562-.8-1.1l.142-.044c.437 1.404 1.403 1.122 1.444 1.11l.045.142c-.008.003-.12.037-.285.037"/></g><path fill="url(#I)" d="M132.64 43.467l7.86 6.875L130.26 52.4l-4.1 9.6-5.12-9.1-10.4-.942 7.074-7.682-2.318-10.182 9.492 4.354 8.967-5.35z"/><path d="M124.582 61.076c.644-.81 1.066-1.606 1.305-2.733.02-.095-.233-.634-.197-.934.114-.96-.286-1.05-.313-1.016l-1.216 1.542c.038-.26.183-.542.02-.806-.063-.103-.288.168-.345.385-.045.174-.515.936-.568 1.25-.095.557.03.856-.015 1.437.5.138.835.714 1.33.875" class="D"/><g transform="translate(106.905 59.995)"><mask id="AC" class="C"><use xlink:href="#J"/></mask><path d="M16.068.09c-.27 2.427-3.885 5.102-6.633 4.566-3.92-.763-3.53-.956-6.517-2.793C.392.3-1.665 2.626 2.266 7.697c2.307 2.975 7.226 3.61 11.137 1.64 2.4-1.214 4.79-5.863 4.923-9.21a5.28 5.28 0 0 0-.978-.086c-.396 0-.788.034-1.28.05" fill="url(#K)" mask="url(#AC)"/></g><path d="M112.294 69.918c.887-1.438 2.064-3.374 1.28-5.954-.5-.205-1.7-.867-2.263-1.15.352 1.536.45 4.33-1.016 5.98.142.076.976.744 1.998 1.12m2.714.5c1.536-1.03 1.9-3.94 1.333-5.774-.445-.08-1.2-.243-1.633-.388.216 1.636-.205 4.58-1.226 5.88l1.527.284zm5.54-1.224c-.35-1.368-1.235-3.565-2.105-4.68-.295.023-.828.302-1.1.192.32 1.395.55 4 .815 5.417.57.001 1.885-.698 2.4-.927m2.954-3.446l-2.393-2.683-.945.683c.695 1.153 1.55 2.174 2.28 3.642l1.06-1.642zm1.456-3.73s-1.626-.395-2.272-.947c-.174.326-.354.674-.588.963.874.47 1.412.88 2.417 1.466l.443-1.482" class="G"/><path d="M114.393 47.07c.086.262.43.4.72.48.767.184.823-.973.76-1.283-.133-.664-1.833-.273-1.48.804" class="D"/><path d="M31.78.298a1.27 1.27 0 0 0-1.266 1.266 1.27 1.27 0 0 0 1.266 1.266 1.27 1.27 0 0 0 1.266-1.266A1.27 1.27 0 0 0 31.781.298m0 2.682c-.78 0-1.415-.635-1.415-1.415A1.42 1.42 0 0 1 31.781.149a1.42 1.42 0 0 1 1.415 1.415c0 .78-.635 1.415-1.415 1.415" class="H"/><path d="M64.048 95.4l1.23 1.23 1.23-1.23-1.23-1.23-1.23 1.23zm1.23 1.442L63.837 95.4l1.442-1.442L66.72 95.4 65.28 96.85z" class="I"/><path d="M30.57 42.165s4.487 6.89 2.574 10.404c-1.383 2.54-5.37 5.41-7.133 5.774-1.444.297-5.5-5.572-3.58-5.915 2.52-.453 5.372-1.072 6.647-2.17 1.3-1.127.507-6.62.507-6.62l.985-1.474z" class="F"/><g transform="translate(23.111 50.75)"><mask id="AD" class="C"><use xlink:href="#L"/></mask><path d="M3.686.314c-.68.268-1.677.688-3.107.865s1.06 4.897 1.027 7.08c-.01.662 1.68.397 5.633-2.66.577-.446.262-2.872-1.272-4.66C5.42.297 4.94.112 4.523.112c-.315 0-.593.106-.837.202" fill="url(#M)" mask="url(#AD)"/></g><path d="M31.072 42.998s-.35-1.24-1.475-2.222c-.47-.412-.67-.32-1.118-.38-.368-.05-.966-.168-.743.163a8.56 8.56 0 0 0 .971 1.198s-.603-.42-.78-.322c-.116.065-.095.135.135.516.166.276.384.672.654 1.016l.923 1.1 1.432-1.068z" class="F"/><path d="M25.922 53.842l-.407 5.562 1.762-.934s-.11-2.978-1.355-4.63" class="B"/><path d="M17.285 106.53s-.7 2.24-.655 2.795c.043.518.222 1.642.424 2.93.056.356-.33.652-.674.333-.65-.606-1.27-1.986-1.285-2.404l-.008-2.722 2.198-.93zm6.335 1.833s-.033.677.053.966c.118.398.865 1 1.3 1.57.254.32.42.73-.38.618-1.215-.17-2.598-.875-2.598-1.33v-1.498l1.616-.325z" class="H"/><g class="B"><path d="M22.222 70.02s-7.338-1.265-7.89.457c-1.095 3.41-1.55 7.46-1.003 11.498.426 3.148 1.897 8.834 1.63 12.873-.19 2.897-.3 12.763-.17 14.026.077.753 2.065.79 2.236.053.328-1.41 3.384-9.217 3.87-15.82.37-5.023.298-8.36.43-10.53l.898-12.556"/><path d="M18.242 69.93l1.48 24.625 1.935 14.907c.038.577 2.42.502 2.474-.123.48-5.575 2.64-21.924 2.667-28.873.013-3.282-.218-7.348-.884-9.904-.506-1.943-7.67-.633-7.67-.633"/></g><path d="M23.397 52.99c-2.498-1.88-7.17-1.7-8.698 1.03-.552.983.27 3.043 1.214 3.72 1.29.924 3.164.926 4.746.574 1.557-.346 3.096-1.053 4.044-2.142 1.08-1.24-.148-2.31-1.306-3.182" class="F"/><path d="M17.825 50.2c1.033 1.23 2.8 1.152 3.772-.17.284-.39 1.003-.86.806-1.638-.324-1.29-.368-1.937-.62-2.43-.51-1.002-2.58-.638-3.237-.026-1.862 1.736-1.785 3.002-.723 4.265" class="B"/><path d="M22.187 46.877c-.082-.113-.383-.1-.613.103-.19.16.124 1.106.46 1.05.354-.06.393-.822.15-1.153" class="K"/><path d="M21.47 52.33l.052-3.032c-.08-.76-3.483-1.02-3.294-.213.27 1.153.426 2.405.21 3.047-.204.603 3.004 1.02 3.033.198" class="F"/><path d="M18.188 48.956l.2.966c.315.726 1.577 1.354 2.124 1.363.572.01.947-.725 1.047-1.086l-.016-.48-3.365-.762z" class="K"/><path d="M18.152 48.785l.154.703c.315.726 1.736 1.496 2.408 1.375.5-.1.804-.512.804-.953l-.166-.9-3.2-.236z" class="B"/><path d="M20.874 45.025c-.538-.408-2.12-.695-2.717.514-.5.995-.387 2.44-.013 3.33.4.954 1.884 1.95 3.06 1.633 1.257-.34 1.167-1.744.955-2.702-.288-1.305-.412-2.114-1.284-2.775" class="F"/><path d="M22.04 47.1c-.162.03-.14-.6-.405-.994-.462-.68-.966-.293-1.06-.857s.022-.728.468-.7c1.742.114 1.7 2.415 1 2.55" class="B"/><path d="M14.906 53.694c0-.914 2.586-2.325 2.883-1.772.68 1.268 2.686 1.628 3.447 1.2.556-.305.682-.627.596-1.07-.08-.41 2.467 1.023 2.7 1.748.665 2.068-.138 16.308-.138 16.308s-1.87.626-4.588.39c-2.033-.177-4.566-.908-4.566-.908l-.334-15.907" class="G"/><path d="M20.872 47.477c-.16-.433-.34.8-.03.988.205.126.47-.1.462-.276-.008-.2-.222-.146-.43-.7m.07 1.99c-.02.106.3.082.292-.104s-.255-.107-.292.104" class="K"/><g transform="translate(12.524 51.645)"><mask id="AE" class="C"><use xlink:href="#N"/></mask><path d="M.804 2.134c-2.028 4.2.977 11.267.432 16.16-.204 1.83 9.4 2.036 11.617.267 1.568-1.246 1.44-5.557 1.398-11.248-.02-2.608-.627-6.243-2.388-7-.178-.076-.622-.04-1.048-.002-.286.025-.563.05-.746.04-.168-.01-.318.1-.357.264C9.445 1.742 8.152 4.863 4.65.04 2.585.498 1.508.673.804 2.134" fill="url(#O)" mask="url(#AE)"/></g><path d="M14.936 55.6l-2.32 5.15.72 3.16s3.587-1.76 1.6-8.31" class="B"/><g class="G"><path d="M17.25 51.8s2.024 4.55 3.302 3.707c.48-.317.318-1.28.318-1.28l-1.94-1.033-1.68-1.396z"/><path d="M22.305 52.123s.958 1.862-.074 2.542c-.565.372-1.353-.446-1.353-.446l1.427-2.096z"/></g><g class="B"><path d="M21.122 47.13c-.122-.136.173-.3.404-.262s.256.226.256.226-.176-.055-.37-.017c-.143.028-.245.1-.3.053m-1.05.257c.07-.168-.265-.236-.468-.115s-.168.297-.168.297.15-.1.345-.137c.144-.02.265.015.3-.045"/><use xlink:href="#v"/><use xlink:href="#v" x="1.631" y="-0.354"/></g><g class="C"><path d="M21.628 93.1l-.15-.002.044-18.037.15-.005c.152 4.65-.042 17.9-.044 18.044M19.6 72.685c-1.82 0-3.578-.367-4.74-1.007l.072-.13c2.287 1.26 6.924 1.446 9.708-.188l.075.13c-1.412.83-3.296 1.196-5.116 1.196"/><path d="M14.602 75.38l-.058-.137c.008-.003.844-.365 1.218-1.054.43-.788.388-1.686.388-1.695l.15-.008a3.71 3.71 0 0 1-.406 1.774c-.4.735-1.255 1.105-1.3 1.12m7.012 1.928c-.026 0-.043-.002-.047-.003l.02-.148c.02.002.515.05.787-.74.293-.853-.016-2.922-.062-3.052l.067-.03-.07-.026.096-.045c.112.04.206 1.23.2 1.28.047.607.07 1.432-.1 1.92-.267.777-.748.84-.9.84"/></g><path d="M21.924 54.83c-.13 0-.272-.028-.426-.084l.05-.14c.3.1.542.1.718-.03.4-.302.37-1.146.37-1.155l.15-.008c.002.038.044.933-.43 1.283a.71.71 0 0 1-.43.136m-1.4-1.042c-.704 0-1.552-.388-2.53-1.16l.092-.117c1.2.938 2.168 1.294 2.9 1.057s.976-1 .978-1.02l.143.042c-.01.035-.257.857-1.074 1.12a1.69 1.69 0 0 1-.518.078m-.568 1.843c-1.15-.427-1.748-1.85-1.773-1.9l.138-.057c.006.014.6 1.422 1.687 1.827l-.052.14zm2.455 8.282l-.15-.01c.003-.048.292-4.83-1.54-9.867l.14-.05c1.844 5.068 1.552 9.88 1.55 9.928M20.76 49.08c-.016 0-.033 0-.05-.001l.008-.15c.278.014.5-.133.5-.134l.084.123c-.01.007-.24.16-.544.16" class="B"/><path d="M18.196 48.195c-.13-.063-.427-.096-.558.167-.108.216-.028.453.066.618.1.177.367.52.642.423.328-.117.06-1.105-.15-1.208" class="K"/><path d="M21.152 45.827c.042.638-.63.324-.795.763-.156.414-.546.55-1.332.734-.653.152-.394.656-.7 1.215-.236.447-1.7 1.13-1.567-.388.082-1.014-1.055-2.342.417-3.1 1.314-.677.753-1.755 2.64-1.283.677.17 1.436.214 1.58.72.15.537-.308.482-.252 1.34" class="B"/><g class="F"><path d="M10.885 75.448s.79 1.56 1.88 2.607c.092.088.824.47 1.278.57.794.174 1.034-.163.865-.376l-1.4-1.624s.413 1.06.723 1.075c.203.01.32-.452.108-.822-.17-.297-.35-1.108-.53-1.366-.322-.458-1.407-1.323-1.407-1.323l-1.507 1.26z"/><path d="M10.885 75.448s-4.05-6.123-3.546-10.554c.506-4.45 1.035-6.322 4.497-9.61 1.072-1.018 3.442.237 3.198 2.238-.294 2.418-2.748 6.77-3.14 9.35-.352 2.31-.576 4.96.905 8.352.576 1.32-1.912.223-1.912.223"/></g><g transform="translate(7.902 52.241)"><mask id="AF" class="C"><use xlink:href="#P"/></mask><path d="M.006 8.163s1.31.54 2.918 1.56c1.262.8 2.643 1.193 3.105.54 2.422-3.42.5-9.2 1.075-10.26C2.37.766.006 8.163.006 8.163" fill="url(#Q)" mask="url(#AF)"/></g><path fill="url(#R)" d="M18.256 25.78l-10.433-.442 5.995 8.55-3.645 9.786 9.984-3.06 8.18 6.5.175-10.44 8.7-5.774-9.876-3.393-2.803-10.06z"/><path d="M29.596 40.776s-.9-.946-1.824-.55c-.14.06-.147.4-.042.544.42.57.4.345.832.837.218.25 1.034-.83 1.034-.83" class="F"/><path d="M153.863 108.05s.1 1.73-.152 2.048c-.234.284-2.006 1.082-2.486 1.532-.073.068-.162.31.26.312.5.001 3.716-.088 3.945-.632.32-.764.425-3.26.425-3.26h-1.993z" class="L"/><path d="M157.54 67.647s-7.305-1.268-7.373.653c-.025.715-.608 4.15-.503 10.674.074 4.61.76 11.33 1.3 15.592.764 5.91 2.286 13.5 2.524 14.836.088.488 2.19.84 2.373.056.612-2.633 1.495-22.006 3.343-27.02 2.393-6.496-1.673-14.792-1.673-14.792" class="I"/><path d="M158.213 91.97s.504-2.7-1.265-2.087c0 0-.598 4.52.085 7.746l1.18-5.66z" class="B"/><path d="M134.778 63.503c-.34-.153.137 1.25.932 2.042.727.726 1.92 1.154 1.92 1.154l.67-1.2s-.624-.42-.96-1.01c-.147-.26-.505-.888-.65-.8-.21.126.057.768-.178.704-.683-.184-1.565-.813-1.734-.89" class="D"/><path d="M159.716 108.714l.29 2.6c.13.505 1.02 1.483 1.53 2.014.705.73 1.11.513 1.052.208-.064-.34-.73-2.08-.79-2.482-.194-1.25-.062-2.6-.062-2.6l-2.02.26z" class="L"/><path d="M155.55 66.76l1.555 27.337c.836 6.565 2.3 12.79 2.5 15.81.04.612 2.122.545 2.18-.12l1.248-15.473c.33-4.348 1.648-9.45 1.572-15.817-.037-3.077-.556-7.486-1.317-10.198-.58-2.062-7.737-1.54-7.737-1.54" class="I"/><path d="M160.146 54.4c-2.44-1.834-7.663-.925-9.154 1.73-.54.96.926 2.247 1.847 2.908 1.258.902 3.09.904 4.634.56 1.52-.338 3.023-1.028 3.95-2.09 1.055-1.212-.144-2.256-1.275-3.106" class="D"/><path d="M156.466 52.006c.76.205 1.88-.106 2.4-.675.843-.923.76-2.533.544-3.208-.208-.654-2.91-1.37-3.45-.872-1.537 1.413-1.48 4.22.506 4.755" class="L"/><path d="M155.642 49.227c-.094-.083-.443-.318-.662-.17-.18.123-.16.412-.135.557.025.15.126.43.414.43.664 0 .535-.684.383-.818m3.718.176c-.06-.122-.432-.254-.684-.105-.207.123-.184.82.15.82.35 0 .714-.357.536-.714" class="E"/><path d="M158.153 54.175c.243-1.088.415-2.806.106-3.234-.438-.604-2.745-.735-2.715.074.022.6-.1 2.67-.082 3.113.025.62 2.516.832 2.692.047" class="D"/><path d="M155.544 51.04l-.004.63c.308.71.806 1.3 1.47 1.235.725-.073 1.15-.74 1.416-1.194v-.44l-2.88-.23z" class="E"/><path d="M155.544 50.64v.375c.308.71.803 1.557 1.466 1.5.725-.073 1.15-.74 1.416-1.195v-.44l-2.88-.23z" class="B"/><path d="M158.493 47.08c-.388-.534-1.785-1.25-2.684-.288-.74.79-.805 2.03-.707 2.966.105 1.005.333 2.188 1.522 2.188 1.25 0 1.892-.897 2.048-1.83.18-1.07.45-2.17-.178-3.035" class="D"/><g class="G"><path d="M154.51 49.49s.528-.063 1.107-1.107c.156-.28.375-.636.375-1.172s-.516-1.102-.928-.876c-1.475.8-.554 3.154-.554 3.154"/><path d="M155.78 47.65c.27.38 1.17.845 1.64 1.027l2.2.814s.257-2.08-.563-3.008c-.76-.86-1.56-.942-2.337-.93-.326.006-.962.148-1.3.576s.138 1.205.36 1.52"/></g><g transform="translate(150.591 53.285)"><mask id="AG" class="C"><use xlink:href="#S"/></mask><path d="M.36 3.607c0 2.055-.3 11.096-.3 11.096s3.125.792 5.693.93c3.725.202 6.5-.466 6.5-.466s-.297-11.03-1.014-13.05C10.987 1.41 8.77-.3 8.382.334c-.536.893-1.5 1.24-2.142 1.25-.658.01-1.592-.233-2.306-1.483C3.9.04 3.84.01 3.764.01 2.996.01.36 2.796.36 3.607" fill="url(#T)" mask="url(#AG)"/></g><path d="M156.653 48.816c.06-.233.38 1.1.067 1.346-.115.087-.568-.023-.6-.18-.022-.084.16-.102.33-.39.092-.157.105-.36.213-.78" class="J"/><g class="B"><path d="M156.385 48.642c.096-.15-.203-.275-.413-.197s-.2.254-.2.254.158-.078.345-.068c.137.007.243.063.277.01"/><use xlink:href="#w"/><use xlink:href="#w" x="1.373" y="0.029"/><path d="M159.036 49.332c-.092-.024-2.266-.6-3.308-1.63l.105-.106c1.013 1.002 3.22 1.586 3.24 1.6l-.038.144zm-.156-.86c-.06-.005-1.448-.14-2.315-1.282l.12-.1c.826 1.1 2.196 1.222 2.2 1.223l-.013.15zm-2.16 2.33c-.054 0-.113-.007-.177-.026l.04-.143c.278.078.432-.105.434-.107l.116.094c-.007.01-.152.182-.412.182m.154 43.423c-.006-.1-.556-10.04-.278-15.77l.15.007c-.277 5.72.272 15.654.278 15.753l-.15.008zm-6.49-18.76l-.134-.066 1.3-2.65.134.066zm2.503-21.448c-2.508-.01-4.774 4.82-6.157 6.708-2.058 2.8-2.817 2.96-8.168 3.924-.613.1-1.482 2.025-.628 2.417 1.702.78 8.54 1.42 9.73.428 4.776-3.986 6.396-13.47 5.222-13.476"/><path d="M163.715 55.383c-.693-1.37-3.14-1.835-4.184-2.035-.04.55-.124 2.194-2.112 2.716-.185 2.75 1.008 11.74.453 16.945-.056.526.355 1.002.935 1.027 1.483.064 2.936-.006 4.418.06.497.022 1.53.238 1.52-.27-.137-7.56 1.077-14.28-1.03-18.442m-9.588-2.418c-1.12.13-3.4 1.3-3.785 1.717-3.44 3.732.146 10.193-1.258 18.513-.064.377 5.2 1.407 6.07.893.844-.507 1.474-13.524 1.503-18.007-1.557-.782-1.87-1.476-2.528-3.115"/><path d="M163.24 76.317l-1.302-2.29.13-.074 1.302 2.29z"/></g><path fill="url(#U)" d="M150.448 56.86l10.42.686-6.882 7.853 2.568 10.122-9.596-4.12-8.833 5.57.952-10.4-8.027-6.68 10.184-2.308 3.872-9.698z"/><path d="M154.447 74.833c.885.056 2.18-1.286 2.18-1.286l-.32-2.613-2.647 1.744c-3.063 1.735.56 2.14.79 2.156" class="D"/><path d="M164.805 67.677c1.685-4.185-.37-12.403-1.9-12.932-.4-.138-1.408 2.06-1.82 5.062-.21 1.532.238 4.445-.765 6.017-.827 1.296-5.345 5.56-5.427 6.314-.057.52.763 2.26 1.255 2.07 1.998-.763 7.254-3.046 8.657-6.532" class="B"/><g transform="translate(39.362 44.935)"><mask id="AH" class="C"><use xlink:href="#V"/></mask><path d="M4 .297C2.06 1.13.977 2.345.842 5.906.807 6.82.608 7.312.1 8.393.967 8.49 2.454 9.505 3.317 9.73c1.416.372 3.34.415 4.76-.003 1.544-.454 2.13-1.24 3.5-2.06-.697-1.195-.92-2.32-1.102-3.06.655 1.592.958 1.697 1.43 2.842l1.072-.64c-.853-.01-1.514-3.262-2.83-4.78C8.27-.153 7.324.47 6.777.483c-.11.003-.3-.107-.6-.217A2.87 2.87 0 0 0 5.124.049C4.8.05 4.41.115 4 .297" fill="url(#W)" mask="url(#AH)"/></g><g class="B"><path d="M49.935 52.977c-.003-.005-.263-.545-.52-1.362l.142-.045c.254.806.5 1.336.512 1.34l-.134.065z"/><path d="M49.325 52.958c-.003-.014-.258-1.42-.77-2.687l.138-.056a15.91 15.91 0 0 1 .777 2.716l-.147.026z"/></g><g class="D"><path d="M59.694 51.802s-1.204 5.4-2.803 6.356c-1.908 1.154-5.202.798-7.523-1.1-1.418-1.165-2.75-2.448-.916-2.373 2.395.1 4.36 1.238 6.535.872 1.06-.18 2.916-4.08 2.916-4.08l1.8.333z"/><path d="M59.694 51.802s.306-1.72.016-2.985c-.13-.56-.6-1.185-.866-1.457-.227-.224-.7-.4-.644-.064.36 1.845.08 2.337-.046 1.897-.063-.218.004-.713-.214-.82-.103-.05-.253.396-.29.738-.212 2.024.428 2.617.428 2.617l1.616.073z"/></g><g transform="translate(47.563 54.329)"><mask id="AI" class="C"><use xlink:href="#X"/></mask><path d="M.245.712c-1.065 2.936 4.35 4.23 5.76 4.043.663-.088 1.205-1.477 1.728-2.862.5-1.325-.816-1.222-1.49-1.26C3.9.5 2.328.09 1.365.09c-.6 0-.95.154-1.12.622" fill="url(#Y)" mask="url(#AI)"/></g><path d="M48.866 104.21l.463-3.5c-.726.173-2.166-.06-2.874-.223-.078 2.06.405 4.485.482 6.18l.085 2.725.283.98.964-.605.596-5.555" class="D"/><path d="M47.023 109.39c.07.014.07.652.584.518.174-.045.254-.223.303-.414.034-.13.356-.508.58-.273.128.136.333.456.6.658.724.55 1.034.305 1.148.572.124.292-.535.563-.757.586-.35.035-1.316-.4-1.95-.422-.818-.016-.47-1.09-.506-1.225" class="B"/><g transform="translate(43.686 61.784)"><mask id="AJ" class="C"><use xlink:href="#Z"/></mask><path d="M3.808.222C2.042 1.17-.092 12.817.11 15.357c.287 3.59 2.38 6.517 2.307 11.445-.07 4.718-.087 9.592.13 13.276 0 0 1.04.336 1.653.38 1.076.078 1.532-.204 1.532-.204.6-8.176 1.926-11.423 2.7-16.435.812-5.264 1.283-14.674-.85-19.135C6.692 2.827 5.484.11 4.24.11a.9.9 0 0 0-.431.113" fill="url(#a)" mask="url(#AJ)"/></g><path d="M45.954 94.765c.043-.6.534-1.522 1.285-2.448 0 0-.797 3.324-1.12 6.837l-.165-4.388" class="B"/><path d="M44.47 109.31l1.02-8.704c-.775.356-2.04.512-2.865.337l-.165.057c-.354 3.186.646 7.075.718 7.9.038.444.015.94.01 1.05l-.013.715s.557.712.834.772c.197.043.764-.253.764-.253s-.355-1.222-.302-1.877" class="D"/><g transform="translate(39.512 63.424)"><mask id="AK" class="C"><use xlink:href="#b"/></mask><path d="M3.332.616C2.058 2.22.56 4.622.103 10.476c-.42 5.397 2.94 11.086 2.346 16.366-.422 3.744-.292 8.4.002 12.136a4.2 4.2 0 0 0 1.822.446c1.13 0 1.706-.267 1.706-.267.196-3.737.7-8.306 2.253-11.666 3.004-6.46 1.015-22.292-.07-25.468C7.696.66 6.165.107 4.926.107c-.72 0-1.338.186-1.595.51" fill="url(#c)" mask="url(#AK)"/></g><path d="M42.716 55.143c2.07-1.43 5.177-1.946 6.613.77.52.982.86 3.69-.087 4.334-1.292.878-3.138.833-4.687.447-1.524-.38-3.014-4.738-1.84-5.55" class="D"/><path d="M47.735 49.65c-.09-.215-.355-.2-.58-.008-.185.158-.042.846.29.79.348-.06.448-.4.29-.78" class="E"/><path d="M47.146 54.443c0-1.113-.096-2.565-.408-2.948-.44-.542-2.4-.61-2.24.2.118.583.376 2.396.368 3.025s2.28.536 2.28-.267" class="D"/><path d="M44.513 51.83l.132.607c.36.663.9 1.254 1.452 1.273.445.015.855-.347.982-.833l-.118-1.107-2.448.06z" class="E"/><path d="M44.372 51.365l.22.8c.36.663 1.256 1.126 1.632 1.087.363-.038.68-.332.808-.82l-.053-.714-2.607-.354z" class="B"/><path d="M46.8 47.54c-.477-.464-1.99-.935-2.717.176-.6.913-.334 2.083-.107 3.006.312 1.273 1.46 2.288 2.135 2.22.737-.075 1.504-1.44 1.498-2.566-.006-1.095-.035-2.083-.808-2.835" class="D"/><path d="M45.88 49.993c-.067-.19-.384.675-.087.822.11.054.432-.025.41-.156-.03-.18-.088-.006-.323-.665" class="J"/><path d="M44 50.325c-.153-.323-.358-.447-.63-.2-.184.158.237 1.017.714 1 .1-.004.1-.426-.083-.8m2.165 1.52c-.068-.015-.16.016-.3.122-.086.072.05.147.26.01.123-.08.105-.115.028-.132" class="E"/><g class="G"><path d="M45.955 46.138c-.89-.155-2.002 1.215-1.583 2.212.29.694 1.02.486 1.806.71.72.204 1.353 1.072 2.493.3 0 0-.726-2.876-2.715-3.222"/><path d="M43.913 47c.71-.303.98.604.96 1.486-.02.82-.66 1.934-2.03 1.856 0 0-.57-2.64 1.072-3.342"/></g><g transform="translate(41.45 54.031)"><mask id="AL" class="C"><use xlink:href="#d"/></mask><path d="M5.248 2.718C3.53 2.65 2.823.33 2.7.113 2.05.46.455.927.132 2.302c-.39 1.66 1.43 3.446.8 7.356-.37 2.337 7.514 2.355 7.357-.394-.09-1.587-.26-2.016.528-3.9C9.323 4.177 8.5.21 6.037.113c.302.55.554 2.658-.79 2.604" fill="url(#e)" mask="url(#AL)"/></g><g class="B"><path d="M46.498 51.35s-.53.547-1.122.1c0 0 .32-.043.433-.106.045-.025.144.086.144.086s.08-.1.113-.113c.093-.01.43.042.43.042m-1.17-1.75c-.018.02-.225.03-.3.04s-.3.07-.3.07.04-.103.3-.175c.24-.07.362.016.32.065"/><path d="M46.18 49.5c.02.018.245-.012.327-.013a4.51 4.51 0 0 1 .307.022s-.105-.097-.348-.127c-.234-.03-.333.076-.287.118m-1.19.413c0-.06.05-.1.1-.1s.1.05.1.1-.04.083-.102.083-.12-.02-.12-.082m-1.052 1.043c0-.04.033-.074.074-.074s.074.033.074.074-.027.055-.068.055-.08-.014-.08-.055m2.446-1.187c-.01-.06.03-.117.1-.128a.11.11 0 0 1 .128.09c.01.06-.04.092-.1.103s-.107-.005-.118-.065m-3.192 60.004c.055.04-.138.785.52.922.17.035.274-.205.4-.36.08-.106.457-.322.55-.014.286.944 1.413 1.14 1.44 1.344.04.314-.347 1.012-2.152-.132-.143-.1-.463-.3-.67-.345-.44-.073-.098-1.275-.08-1.413m-2.13-56.354l-.147-.025c.122-.722.202-1.494.26-2.5l.003-.057c.12-2.1.284-4.976 3.27-5.3l.016.148c-2.86.3-3.014 3-3.137 5.15l-.003.057-.26 2.517"/><path d="M41.747 53.343l-.146-.032c.277-1.26.274-2.5.27-3.792v-.78h.15v.778c.003 1.253.006 2.55-.274 3.824m-.777 15.36l-.033-.145c.013-.003 1.258-.3 1.814-2.14l.143.043c-.582 1.92-1.87 2.23-1.923 2.242m7.01-2.08a14.03 14.03 0 0 0-.313-1.282l.143-.04.316 1.297-.147.026zm-.873.097l-.15-.01c0-.005.032-.527-.148-1.12l.143-.043a3.62 3.62 0 0 1 .154 1.173"/><path d="M47.386 66.145l-.013-.15c.802-.068 1.15-.363 1.154-.366l.098.112c-.015.013-.384.33-1.24.402"/><path d="M48.036 66.51l-.032-.146c.397-.088.763-.332.87-.58.05-.115.044-.226-.018-.33-.108-.182-.226-.16-.586-.063l-.487.114-.026-.147c.185-.033.338-.075.474-.112.338-.092.583-.158.753.13.086.146.095.308.026.466-.128.293-.53.567-.976.666"/><path d="M46.28 67.112h-.065c-1.32-.01-3.33-.6-4.457-1.642l.102-.1c1.1 1.027 3.066 1.592 4.357 1.602 1.92.013 3.38-.66 4.127-1.902l.128.077c-.765 1.275-2.252 1.975-4.2 1.975M42.997 50.42l-.003-.15c.008 0 .845-.026 1.37-.634.358-.415.493-1.003.4-1.75l.148-.018c.098.8-.05 1.42-.437 1.867-.57.657-1.442.683-1.48.684m4.79-.684c-.234 0-.893-.236-1.218-.424-.617-.357-1.514-.364-1.523-.364v-.15c.038 0 .945.007 1.597.384.386.223 1.058.426 1.152.405l.046.142c-.014.005-.033.007-.055.007"/></g><path d="M46.797 57.344c-1.08 0-2.382-1.106-2.625-2.288l.146-.03c.26 1.26 1.72 2.284 2.658 2.157.682-.092 1.017-.745.945-1.84l.15-.01c.105 1.597-.627 1.937-1.074 1.997a1.49 1.49 0 0 1-.199.013m2.95 4.76l-.15-.006c.06-1.462.156-1.67.348-2.084a5.94 5.94 0 0 0 .29-.722c.327-1-.246-2.997-.956-4.063l.124-.083c.745 1.117 1.32 3.148.974 4.193a6.12 6.12 0 0 1-.295.738c-.184.396-.276.595-.334 2.027" class="C"/><path d="M46.73 94.3l-.147-.022c.102-.68.346-1.4.656-2.312.964-2.837 2.577-7.585 1.612-17.84l.15-.014c.968 10.288-.652 15.055-1.62 17.903-.307.904-.55 1.618-.65 2.286" class="B"/><path fill="url(#f)" d="M64.476 37.656l6.256 8.36-10.442-.12-6.02 8.534-3.112-9.968-9.976-3.087 8.518-6.04-.147-10.44 8.377 6.235 9.885-3.366z"/><g class="D"><path d="M53.436 54.557c-.73 2.454-1.977 4.64-3.03 4.702-1.41.085-4.914-2.976-6.48-3.292-1.8-.363-1.903 1.85-.44 2.96 1.766 1.34 4.81 3.406 7.49 2.966 1.995-.328 4.222-6.75 4.222-6.75l-1.758-.586z"/><path d="M54.928 55.565s.4-.537.973-1.845c.254-.58.45-1.54.385-1.962-.054-.347-.334-.56-.516-.228-.927 1.69-1.372 1.785-1.102 1.36.207-.327.428-.58.305-.817-.058-.112-.72.5-.98.767-.635.68-.557 1.977-.557 1.977l1.49.746z"/></g><g transform="translate(41.45 55.671)"><mask id="AM" class="C"><use xlink:href="#g"/></mask><path d="M.228.555c-.362 1.043.367 3.61 3.767 4.594.878.254.825.018 1.174-.43.524-.67 1.683-2.08 1.277-2.793C5.938 1.033 3.142.07 1.467.07.824.07.347.212.228.555" fill="url(#h)" mask="url(#AM)"/></g><path d="M47.552 57.314c-.013-.01-1.388-1.093-4.57-1.5l.02-.148c3.23.41 4.6 1.485 4.646 1.53l-.094.116z" class="C"/><g transform="translate(77.234 46.426)"><mask id="AN" class="C"><use xlink:href="#i"/></mask><path d="M7.594.3C7.5.302 7.378.285 7.233.267 6.56.186 5.38.106 4.058 2.02 2.275 4.606-2.77 19.48 2.296 24.516c1.907 1.896 4.842 2.017 7.142 3.127 4.274 2.063 6.3.733 6.3.733s-1.226-1.594-.725-4.23c2.014-10.602-.822-10.86-1.873-18.54C12.636 1.9 11.326.6 9.83.16c-.316-.093-.6-.127-.855-.127-.7 0-1.16.26-1.38.266" fill="url(#j)" mask="url(#AN)"/></g><path d="M78.684 46.236l1.423-3.103c.174-.363.656-1.064 1.04-1.227.316-.135.792.004.637.34-.452.976-.42 1.174-.42 1.174s.34-.338.478-.346c.378-.023-.334 1.643-.695 2.098-.302.38-1.32 1.065-1.32 1.065l-1.144.001z" class="D"/><g transform="translate(75.743 44.488)"><mask id="AO" class="C"><use xlink:href="#k"/></mask><path d="M.42 4.616c-.63 2.93-.575 8.1 3.53 11.01.453.32 2.87-4.133 1.5-4.785-1.904-.9-1.826-3.515-1.653-4.684.13-.887 1.777-3.63 1.85-4.426.044-.468-.75-1.427-1.566-1.59-.07-.014-.138-.02-.208-.02C2.37.124.736 3.145.42 4.616" fill="url(#l)" mask="url(#AO)"/></g><path d="M80.97 46.405c-.245-.594-.454-.982-1.62-1.446l.055-.14c1.196.476 1.44.894 1.7 1.527l-.138.057z" class="B"/><path d="M82.71 69.063c-1.454-.78-2.845 1.263-3.837 4.165-1.062 3.108-1.622 11.052-.828 16.202.93 6.022 2.812 5.6 3.063 18.873.02 1.126-.22 2.27-.22 2.27l1.44-.815.222-.277c-.105-.454-.158-1.028-.05-1.48.44-1.816 1.552-7.29 1.43-15.652-.07-4.82 1.24-10.368 1.52-13.882.2-2.485-1.01-8.475-2.737-9.403" class="E"/><path d="M82.55 109.238c-.06.015-.446.597-1.165.505-.182-.023-.4-.04-.325-.336-.085.136-.202.443-.4.6-.343.243-1.092.565-1.118.747-.055.384 2.15.378 2.58-.052.262-.263.098.2.52.075.076-.024.226-1.078-.08-1.53m2.4-15.017s-3.398-1.207-4.952-.347c0 0 2.07 1.13 3.365 1.5.988.283 1.587-1.154 1.587-1.154" class="B"/><path d="M82.684 75.907c-1.062 3.108-1.474 10.738.248 17.5 1.813 7.107 6.987 11.02 9.633 14.426.43.552 1.398 2.422 1.398 2.422l.77-1.3s-.765-1.093-.957-1.493c-1.425-2.973-3.125-8.7-5.737-11.934-1.5-1.845-.363-13.066-.082-16.58.198-2.485-4.282-5.942-5.273-3.04m5.378-19.293c-2.297-1.947-6.052-2.483-7.673.046-.586.914-.66 3.398.2 4.102 1.188.96 3 1.068 4.532.818 1.517-.246 3.997-4.064 2.932-4.966" class="D"/><path d="M82.752 50.77c.116-.196.37-.147.563.068.16.177-.118 1.117-.43 1.018-.33-.104-.333-.748-.132-1.087" class="E"/><path d="M82.98 55.977c.032-1.09.242-2.777.558-3.143.447-.518 2.2-.292 2.02.485l-.55 3.022c-.14.597-2.048.42-2.025-.365" class="D"/><path d="M85.552 53.343l-.12.6c-.37.638-.86 1.135-1.344.97-.528-.18-.785-.54-.895-1.02l.156-.777 2.203.216z" class="E"/><path d="M85.684 52.86l-.065.598c-.37.638-.832 1.015-1.537.874-.548-.1-.746-.526-.856-1.006l.255-.683 2.203.216z" class="B"/><path d="M83.953 48.856c.523-.387 2.05-.646 2.612.526.46.964.24 2.184-.13 3.036-.397.915-1.335 1.97-2.453 1.618-1.176-.37-1.33-1.49-1.2-2.416.15-1.06.324-2.137 1.172-2.764" class="D"/><path d="M84.504 51.276c.098-.18.245.84-.11.937-.13.035-.453-.102-.412-.23.055-.175.18-.08.522-.706" class="J"/><path d="M86.385 51.947c.2-.293.42-.315.653-.05.158.178-.316 1-.735.794-.246-.12-.132-.412.082-.742" class="E"/><g transform="translate(84.54 47.47)"><mask id="AP" class="C"><use xlink:href="#m"/></mask><path d="M.056 1.403c.068.862.448 1.625 1.008 1.964.624.377.547.9.84 1.377.792 1.3 1.284.492 1.147-.083-.262-1.096.44-1.632.333-2.41-.093-.68-.472-.283-.845-1.58C2.433.308 2.01.128 1.544.128.82.128-.01.558.056 1.403" fill="url(#n)" mask="url(#AP)"/></g><g transform="translate(81.26 47.47)"><mask id="AQ" class="C"><use xlink:href="#o"/></mask><path d="M2.855.16c-.716.397-.298.572-1.108.78-.76.195-.294 1.393-.977 1.94-.462.37-.74.484-.74.484a2 2 0 0 0 1.551.143c.53-.177.574-.724 1.297-.81.65-.076 1.12-.412 1.373-1.24C4.457.79 3.848.064 3.228.064c-.126 0-.253.03-.373.097" fill="url(#p)" mask="url(#AQ)"/></g><g transform="translate(76.19 64.468)"><mask id="AR" class="C"><use xlink:href="#q"/></mask><path d="M4.086.2C1.95.758.94 3.954.264 10.015c-.698 6.252 1.81 19.434 2.11 19.434 1.974 0 4.582 1.27 7.312.924 3.307-.42 2.966-.76 2.94-1.566-.25-7.527-1.04-8.744-.057-13.57.718-3.527 1.952-9.938-1.54-14C10.605.757 7.97.005 5.747.005c-.6 0-1.172.055-1.66.185" fill="url(#r)" mask="url(#AR)"/></g><path d="M88.954 56.397c-.32-.877-2.13-.274-3.052-1.127-.138.222-.625 2.802-2.298 2.612-2.152-.245-1.066-2.256-.97-2.885-2.7.383-3.904 3.927-3.386 5.572.655 2.08-.035 2.923-.07 4.64-.058 2.735 9.05 2.835 8.297.392-1.245-4.047 2.334-6.863 1.48-9.203" fill="#3cacfb"/><g class="B"><path d="M83.04 58.467c.1-.122.247-.144.333-.03.07.093-.103.38-.278.34-.113-.025-.157-.172-.055-.3m-.287 1.503c.1-.118.286-.13.396-.01.1.1-.1.378-.3.328-.137-.033-.198-.183-.084-.317"/><path d="M82.786 61.554c.14-.015.274.096.278.247.004.125-.293.2-.408.02-.075-.1-.027-.25.13-.268m1.11-9.073s.25.55.655.2c0 0-.08-.045-.182-.12-.04-.03-.16.014-.16.014s-.06-.085-.093-.093c-.1-.022-.22.01-.22.01m1.193-1.4c.012.022.156.035.288.074.103.03.202.145.202.145s-.003-.16-.206-.253c-.196-.1-.312-.017-.284.034m-.82-.24c-.02.015-.147-.033-.275-.052-.1-.015-.23.048-.23.048s.067-.145.277-.144c.202 0 .273.114.228.15"/><path d="M85.333 51.38c.008-.06-.033-.114-.092-.122s-.114.033-.122.092.03.085.088.094.118-.005.126-.064m-1.233-.3c.018-.057-.013-.118-.07-.136s-.118.013-.136.07.027.095.084.113.104.01.122-.047m1.53-.15c-.017-.01-1.662-1.098-.84-2.8l.134.065c-.765 1.585.772 2.6.787 2.6l-.08.125zm.72-.494c-.012-.006-1.166-.627-.864-1.785l.144.038c-.272 1.042.746 1.592.8 1.615l-.07.132zm5 11.136c-.005-.042-.555-4.28-1.518-6.9-.413-1.128-.6-2.285-.783-3.305-.375-2.208-.67-3.953-2.897-3.992l.003-.15c2.35.04 2.655 1.84 3.04 4.116.172 1.014.367 2.164.776 3.28.97 2.647 1.52 6.9 1.526 6.942l-.148.02z"/><path d="M89.867 57.173c-.22-.7-.433-1.203-.62-1.646-.426-1.004-.733-1.73-.77-3.813l.15-.003c.038 2.056.34 2.77.76 3.758l.626 1.66-.142.045zm-7.664-5.986a1.17 1.17 0 0 1-.533-.117l.072-.13c.03.016.737.386 1.594-.422a1.62 1.62 0 0 1 .984-.488c.167-.028.3-.052.46-.165l.1.12c-.178.134-.346.163-.525.192-.245.04-.523.088-.907.45-.475.448-.913.56-1.235.56M90.8 105.85l-1.065-1.128a28.53 28.53 0 0 1-2.715-3.14l.12-.1c1.173 1.56 1.95 2.355 2.702 3.126l1.07 1.133-.1.1zm-2.032-35.635c-.02 0-2.037-.024-2.6-2.126l.144-.04c.534 1.992 2.436 2.015 2.456 2.015v.15z"/><path d="M79.53 63.254l-.146-.03c.002-.012.235-1.178-.032-2.002-.328-1.013-.583-2.63.998-4.977l.124.083c-1.527 2.266-1.326 3.78-.98 4.848.28.862.046 2.028.036 2.077m4.123 4.892c-1.73 0-3.8-.574-4.64-1.876l.126-.08c.815 1.28 2.902 1.83 4.614 1.806 2.792-.037 3.554-1.086 3.562-1.096l.123.084c-.03.046-.802 1.123-3.682 1.16l-.103.001"/></g><path d="M93.202 47.368l.034-2.624c.02-.47-1.443-.55-1.443-.55s-.862-.483-.975-.464c-.43.074.19 3.803.19 3.803l2.195-.166z" class="D"/><g transform="translate(86.627 45.83)"><mask id="AS" class="C"><use xlink:href="#s"/></mask><path d="M4.168.656c-.844.72-.038 3.672-.745 5.63-.62 1.718-1.58 3.234-2.982 3.796-1.164.467.358 5.16.865 4.932.603-.27 4.215-4.236 5.2-6.804.893-2.33.742-7.062.326-7.627C6.58.24 6.198.12 5.798.12c-.678 0-1.405.345-1.63.538" fill="url(#t)" mask="url(#AS)"/></g><path d="M90.87 47.183l-.103-.108c.01-.01.995-.93 2.223-.35l-.064.135c-1.137-.536-2.047.314-2.056.323m3.187 60.76c.064-.02.397 1.3.035 1.482-.296.14-.667-.417-.918-.63.105.15.566 1.246.686 1.533.15.36.272.77.418.908.226.213.622-.187.66-.513.08-.698.01-1.132-.04-1.338-.267-1.123-.743-1.346-.842-1.44" class="B"/><path fill="url(#u)" d="M92.26 27.223l10.187 2.297-8.02 6.688.963 10.398-8.84-5.56-9.59 4.13 2.557-10.124-6.89-7.846 10.42-.697 5.333-8.978z"/><path d="M91.638 44.84c.157.226 1.55.85 1.578.488.085-1.045.01-5-1.122-3.24-.952 1.472-.686 2.42-.456 2.752m-11.96-.795c-.096.248 1.356.578 1.52.32.294-.465.313-4.2-.574-2.645-.745 1.307-.584 1.4-.946 2.327" class="D"/></g></g><g fill-rule="nonzero"><path d="M18.41 171.432h-8.173c-1.505 0-2.724-1.284-2.724-2.868v-21.508c0-1.584 1.22-2.868 2.724-2.868h8.173c1.505 0 2.724 1.284 2.724 2.868v21.508c0 1.584-1.22 2.868-2.724 2.868z" fill="#349093"/><path d="M11.803 167.985c-.592 0-1.072-.505-1.072-1.13V144.19h-.493c-1.505 0-2.724 1.284-2.724 2.868v21.508c0 1.584 1.22 2.868 2.724 2.868h8.173c1.505 0 2.724-1.284 2.724-2.868v-.58h-9.332z" fill="#007075"/><circle fill="#f2edec" cx="13.568" cy="163.865" r="1.514"/><path d="M13.568 162.35a3.03 3.03 0 0 0-3.027 3.027 3.03 3.03 0 0 0 3.027 3.027 3.03 3.03 0 0 0 3.027-3.027 3.03 3.03 0 0 0-3.027-3.027zm0 4.058a1.03 1.03 0 1 1 0-2.061 1.03 1.03 0 1 1 0 2.061z" fill="#000"/><path d="M33.82 135.84c1.427-2.873 2.138-10.2 2.168-10.5a1.11 1.11 0 0 0 .005-.101c0-.036.014-.067.04-.09.038-.033.074-.03.086-.028.66.08 1.612.398 2.413 1.45.92 1.208 1.867 3.688 1.164 8.645-.596 4.202-2.01 6.04-2.018 6.05-.552.68-.055 1.73.815 1.73h18.74c1.47 0 2.665 1.204 2.665 2.683s-1.195 2.683-2.665 2.683h-4.423c-.58 0-1.053.475-1.053 1.06s.47 1.06 1.053 1.06h4.423c1.47 0 2.665 1.204 2.665 2.683s-1.195 2.683-2.665 2.683h-4.423c-.58 0-1.053.475-1.053 1.06s.47 1.06 1.053 1.06h2.936c1.47 0 2.665 1.204 2.665 2.683s-1.195 2.683-2.665 2.683H52c-.58 0-1.053.475-1.053 1.06s.47 1.06 1.053 1.06h2.256c1.47 0 2.665 1.204 2.665 2.683s-1.195 2.683-2.665 2.683h-27.51c-2.173 0-3.646-.733-4.445-1.283a3.96 3.96 0 0 0 .066-.715v-21.544a3.94 3.94 0 0 0-.183-1.189c2.467-1.14 8.78-4.5 11.634-10.255z" class="C"/><path d="M26.747 172.946h27.51c2.63 0 4.77-2.155 4.77-4.803 0-1.214-.45-2.324-1.2-3.17 1.584-.782 2.677-2.423 2.677-4.316 0-1.214-.45-2.324-1.2-3.17 1.584-.782 2.677-2.423 2.677-4.316a4.81 4.81 0 0 0-1.784-3.743A4.81 4.81 0 0 0 62 145.682c0-2.65-2.14-4.803-4.77-4.803H40.298c.526-1.156 1.134-2.916 1.48-5.363.807-5.686-.412-8.704-1.577-10.234-.986-1.295-2.3-2.08-3.83-2.265-1.282-.16-2.453.867-2.487 2.164-.197 2.04-.918 7.632-1.95 9.712-2.653 5.343-8.978 8.528-10.932 9.4a3.87 3.87 0 0 0-2.541-.95H9.905c-2.153 0-3.905 1.764-3.905 3.932v21.544c0 2.168 1.752 3.932 3.905 3.932h8.558c1.152 0 2.19-.505 2.904-1.307 1.11.706 2.904 1.493 5.38 1.493zm7.07-37.106c1.427-2.873 2.138-10.2 2.168-10.5a1.11 1.11 0 0 0 .005-.101c0-.036.014-.067.04-.09.038-.033.074-.03.086-.028.66.08 1.612.398 2.413 1.45.92 1.208 1.867 3.688 1.164 8.645-.596 4.202-2.01 6.04-2.018 6.05-.552.68-.055 1.73.815 1.73h18.74c1.47 0 2.665 1.204 2.665 2.683s-1.195 2.683-2.665 2.683h-4.423c-.58 0-1.053.475-1.053 1.06s.47 1.06 1.053 1.06h4.423c1.47 0 2.665 1.204 2.665 2.683s-1.195 2.683-2.665 2.683h-4.423c-.58 0-1.053.475-1.053 1.06s.47 1.06 1.053 1.06h2.936c1.47 0 2.665 1.204 2.665 2.683s-1.195 2.683-2.665 2.683H52c-.58 0-1.053.475-1.053 1.06s.47 1.06 1.053 1.06h2.256c1.47 0 2.665 1.204 2.665 2.683s-1.195 2.683-2.665 2.683h-27.51c-2.173 0-3.646-.733-4.445-1.283a3.96 3.96 0 0 0 .066-.715v-21.544a3.94 3.94 0 0 0-.183-1.189c2.467-1.14 8.78-4.5 11.634-10.255zm-15.356 34.8H9.905a1.81 1.81 0 0 1-1.8-1.812v-21.544a1.81 1.81 0 0 1 1.8-1.812h8.558c.503 0 .957.21 1.284.545v23.638a1.06 1.06 0 0 0 .066.368 1.79 1.79 0 0 1-1.35.618z" fill="#111"/></g><path d="M94 150H80a1 1 0 0 0-1 1v13a1 1 0 0 0 1 1h14a1 1 0 0 0 1-1v-13a1 1 0 0 0-1-1zm11.69 2.373a2 2 0 0 0-2.759-.624l-4.136 2.6a3 3 0 0 0-.042 5.047l4.15 2.717A2 2 0 0 0 106 160.45v-7a2 2 0 0 0-.309-1.067z" stroke="#7b7b7b" stroke-width="2"/><path d="M117.053 151.45a.55.55 0 0 1 .591-.59h5.75c1.764.2 2.997 1.1 3.118 3.46v3.195c0 .474-.03.873-.165 1.335-.457 1.538-1.557 2.302-3.2 2.4h-2.466v3.9c0 .294-.247.44-.545.44h-2.6c-.315 0-.547-.176-.546-.528l.053-13.633zm3.655 3.035h1.53a.63.63 0 0 1 .627.628v1.846a.63.63 0 0 1-.627.629h-1.53v-3.102zm8.637-3.605h4.02c2.353.137 3.626 1.372 3.593 3.933v9.485c0 .736-.743 1.292-1.378 1.292h-5.27c-1.598 0-2.653-1.246-2.917-2.467-.252-1.173-.065-2.592-.065-3.8 0-1.85 1.226-3.682 3.267-3.682h2.144c.623-.034.596-1.397 0-1.35h-3.352c-.34 0-.578-.18-.6-.526v-2.484c0-.318.26-.412.566-.412zm2.216 8.2h1.226a.53.53 0 0 1 .527.527v2.136a.53.53 0 0 1-.527.528h-1.226a.52.52 0 0 1-.525-.528v-2.136a.52.52 0 0 1 .525-.527zm6.64-7.532v5.992c.146 1.88 1.832 3.285 3.666 3.285h1.697c.702 0 .66 1.18 0 1.18h-3.67c-.398 0-.543.207-.543.56v2.638c0 .266.215.466.496.466h3.4c2.837 0 4.452-1.36 4.452-4.4v-9.938c0-.325-.205-.45-.402-.45h-2.85c-.264 0-.417.286-.417.495v5.447c0 .234-.13.37-.34.37h-1.35c-.3 0-.48-.168-.48-.465v-5.26c0-.348-.14-.604-.525-.604h-2.742c-.3 0-.4.3-.4.697" fill="#233375"/><path d="M149.12 154v-2.6a.51.51 0 0 1 .506-.506h.623c1.607-.334 2-1.276 2.97-2.336.603-.654 1.134-.826 1.524-.132v2.468h1.472c.278 0 .505.228.505.506v2.6a.51.51 0 0 1-.505.506h-1.473v10.616a.51.51 0 0 1-.505.506h-2.592c-.277 0-.504-.228-.504-.506v-10.616h-1.517a.51.51 0 0 1-.506-.506m18.356 10.953c0 .345-.286.628-.632.628h-2.427a.63.63 0 0 1-.633-.628v-9.744c.02-1.053-2.103-1.217-2.103 0v9.744c0 .345-.285.628-.633.628h-2.426c-.348 0-.634-.283-.634-.628v-13.508c0-.348.286-.63.634-.63h2.426c.348 0 .633.283.633.63v.185c1.418-1.357 3.877-1.142 5.185.268 2.462-2.824 6.68-.308 6.485 2.8l-.03 10.266c0 .345-.286.628-.632.628h-2.427c-.348 0-.633-.283-.633-.628v-9.68c-.14-1.352-2.18-1.036-2.177 0l.024 9.68" fill="#00a3da"/><path d="M194.05 142l4.302 7.54 8.748 1.624-6.1 6.285 1.105 8.55-8.065-3.663-8.072 3.663 1.112-8.55-6.1-6.285 8.744-1.626z" fill="#ef902f"/><path d="M225.05 143.01l-3.987 6.98-8.055 1.498 5.61 5.79-1.027 7.898 7.46-3.385 7.455 3.385-1.022-7.898 5.61-5.79-8.06-1.497-3.983-6.98z" stroke="#666"/></g></svg>