<?xml version="1.0"?>
<svg xmlns="http://www.w3.org/2000/svg" id="_x33_0" enable-background="new 0 0 64 64" height="512px" viewBox="0 0 64 64" width="512px"><g><g><path d="m48 14h2v2h-2z" data-original="#000000" class="active-path" data-old_color="#000000" fill="#FFFFFF"/><path d="m63 4.829c0-2.112-1.718-3.829-3.828-3.829-1.023 0-1.984.398-2.707 1.122l-7.465 7.464-.041-.041c-1.207-1.208-2.709-2.012-4.343-2.355l-12.616-6.308-23.092 11.546.776 5.46c1.003 7.016.862 14.195-.429 21.948l-.305 1.828 1.592 2.553-6.24 6.067-.195.19-3.532 12.951 12.951-3.532 5.135-5.282c3.031 2.743 6.677 5.173 11.131 7.402l2.208 1.105 2.207-1.105c8.166-4.086 13.756-8.897 17.591-15.136l3.251-5.214-.305-1.828c-.857-5.147-1.201-9.988-1.051-14.729l1.58 1.58.81-1.617c.6-1.201.917-2.545.917-3.885 0-2.32-.903-4.502-2.545-6.144l-.041-.04 7.465-7.465c.723-.723 1.121-1.684 1.121-2.706zm-11.586 5.171 4.586-4.586 2.586 2.586-4.586 4.586v-2.586zm-36.144 6.815-.178-1.243 15.908-7.954v16.709l-15.795 15.357c1.119-7.587 1.15-15.272.065-22.869zm24.138-5.993 3.637 3.636-2.548.637-7.497 7.288v-14.765zm3.407-1.822c1.261 0 2.464.353 3.509 1h-2.324v2.586l-3.256-3.256c.667-.217 1.369-.33 2.071-.33zm4.381 13.093-6.044.755.756-6.044 2.092-.523v3.719h3.719zm-7.541-3.39-.604 4.833-26.465 26.464h-5.123zm-25.655 32.711 26.464-26.464 4.832-.604-31.296 32.191zm17-9.494v14.433c-3.38-1.798-6.11-3.66-8.437-5.755zm2-2.057 15.018-15.447c-.251 5.472.058 10.96.935 16.378l-1.945 3.16c-3.11 5.053-7.469 8.92-14.008 12.402zm13-21.863v-6h6v6zm-34.951 23.247.18-1.083c1.325-7.958 1.468-15.336.437-22.558l-.573-4.034 20.907-10.454 8.45 4.225c-.523.148-1.035.331-1.521.574l-.429.215-6.5-3.25-19.092 9.546.381 2.67c1.128 7.888 1.035 15.875-.275 23.737l-.062.37.258.419-1.199 1.166zm-5.286 10.753h6.237v6.236l-8.575 2.339zm47.008-11.836.18 1.083-2.854 4.578c-3.635 5.912-8.968 10.488-16.785 14.4l-1.312.657-1.313-.657c-4.263-2.134-7.746-4.449-10.631-7.049l1.112-1.144c2.799 2.532 6.123 4.732 10.384 6.862l.448.224.447-.224c7.707-3.854 12.723-8.138 16.264-13.893l2.337-3.797-.062-.37c-1.058-6.352-1.314-12.805-.779-19.214l1.573 1.573c-.319 5.467.002 11.023.991 16.971zm2.229-18.979c0 .701-.112 1.403-.33 2.071l-3.256-3.256h2.586v-2.324c.647 1.045 1 2.249 1 3.509zm5.465-15.063-.465.464-2.586-2.586.465-.465c.341-.34.811-.535 1.293-.535 1.008 0 1.828.82 1.828 1.829 0 .488-.19.947-.535 1.293z" data-original="#000000" class="active-path" data-old_color="#000000" fill="#FFFFFF"/></g></g> </svg>
