<svg id="_x33_0" enable-background="new 0 0 64 64" height="512" viewBox="0 0 64 64" width="512" xmlns="http://www.w3.org/2000/svg" xmlns:xlink="http://www.w3.org/1999/xlink"><linearGradient id="SVGID_1_" gradientUnits="userSpaceOnUse" x1="31.788" x2="31.788" y1="63.425" y2=".882"><stop offset="0" stop-color="#9f2fff"/><stop offset="1" stop-color="#0bb1d3"/></linearGradient><path d="m48 14h2v2h-2zm-34.474 45.893-12.951 3.532 3.532-12.952.195-.19 6.24-6.067-1.592-2.553.305-1.828c1.291-7.752 1.432-14.932.429-21.948l-.776-5.46 23.092-11.545 12.616 6.308c1.634.343 3.135 1.147 4.343 2.355l.041.041 7.465-7.464c.722-.724 1.683-1.122 2.707-1.122 2.11 0 3.828 1.717 3.828 3.829 0 1.022-.398 1.983-1.121 2.707l-7.465 7.464.041.041c1.642 1.642 2.545 3.824 2.545 6.144 0 1.34-.317 2.684-.917 3.885l-.81 1.617-1.58-1.58c-.15 4.741.194 9.582 1.051 14.729l.305 1.828-3.251 5.214c-3.835 6.238-9.425 11.049-17.591 15.136l-2.207 1.104-2.207-1.105c-4.454-2.229-8.1-4.659-11.131-7.402zm1.679-20.209 15.795-15.356v-16.71l-15.908 7.954.178 1.243c1.085 7.597 1.054 15.282-.065 22.869zm17.795-32.066v14.765l7.496-7.288 2.548-.637-3.637-3.636zm7.744 1.712 3.256 3.256v-2.586h2.325c-1.045-.647-2.249-1-3.509-1-.703 0-1.405.113-2.072.33zm13.256.67v2.586l4.586-4.586-2.586-2.586-4.586 4.586zm-40 41.414v5.123l31.297-32.191-4.832.604zm30-31.414v-3.719l-2.093.523-.756 6.044 6.044-.755.524-2.093zm-21.437 30.599c2.327 2.094 5.057 3.957 8.437 5.755v-14.434zm10.437 5.757c6.539-3.481 10.898-7.349 14.008-12.402l1.945-3.16c-.877-5.418-1.186-10.906-.935-16.378l-15.018 15.447zm19-38.356v-6h-6v6zm-44.537 32h5.123l26.465-26.465.604-4.833zm44.317-26.806-1.573-1.573c-.535 6.409-.279 12.862.779 19.214l.062.37-2.337 3.797c-3.541 5.754-8.557 10.039-16.264 13.893l-.447.223-.447-.224c-4.261-2.131-7.585-4.33-10.384-6.862l-1.112 1.144c2.885 2.6 6.369 4.915 10.631 7.049l1.312.657 1.312-.657c7.817-3.913 13.15-8.488 16.785-14.4l2.854-4.578-.18-1.083c-.989-5.948-1.31-11.504-.991-16.97zm2.22-5.518v2.324h-2.586l3.256 3.256c.218-.668.33-1.37.33-2.071 0-1.26-.353-2.464-1-3.509zm3.879-14.141-.465.465 2.586 2.586.465-.465c.345-.345.535-.804.535-1.292 0-1.009-.82-1.829-1.828-1.829-.482 0-.952.195-1.293.535zm-45.868 39.254 1.199-1.166-.258-.419.062-.37c1.311-7.863 1.403-15.849.275-23.737l-.381-2.67 19.092-9.545 6.5 3.25.43-.215c.485-.243.998-.426 1.521-.574l-8.451-4.225-20.908 10.454.573 4.034c1.031 7.222.889 14.601-.437 22.558l-.18 1.083zm-8.586 17.786 8.575-2.339v-6.236h-6.237z" fill="url(#SVGID_1_)"/></svg>