<?xml version="1.0"?>
<svg xmlns="http://www.w3.org/2000/svg" id="roman-soldier" enable-background="new 0 0 300 300" height="512px" viewBox="0 0 300 300" width="512px" class=""><g transform="matrix(1.19495 0 0 1.19495 -29.2427 -29.2427)"><g><path d="m60.484 223.248c1.023 0 2.047-.391 2.828-1.172 1.562-1.562 1.562-4.094 0-5.656l-2.828-2.828 2.828-2.828c1.562-1.562 1.562-4.094 0-5.656s-4.094-1.562-5.656 0l-2.828 2.828-2.828-2.829c-1.562-1.562-4.094-1.562-5.656 0s-1.562 4.094 0 5.656l2.828 2.828-2.828 2.828c-1.562 1.562-1.562 4.094 0 5.656.781.781 1.805 1.172 2.828 1.172s2.047-.391 2.828-1.172l2.828-2.828 2.828 2.828c.782.782 1.805 1.173 2.828 1.173z" data-original="#000000" class="active-path" data-old_color="#000000" fill="#FFFFFF"/><circle cx="138.828" cy="245.592" r="4" data-original="#000000" class="active-path" data-old_color="#000000" fill="#FFFFFF"/><circle cx="62.828" cy="261.592" r="4" data-original="#000000" class="active-path" data-old_color="#000000" fill="#FFFFFF"/><circle cx="250.828" cy="93.592" r="4" data-original="#000000" class="active-path" data-old_color="#000000" fill="#FFFFFF"/><path d="m235.438 197.639c-.469-.07-44.555-7.191-51.836-36.051l53.879-.062c2.207-.004 3.996-1.922 3.996-4.129 0-39.594-32.211-71.805-71.805-71.805-3.038 0-6.012.251-8.952.619l-3.172-10.18c2.274-.214 4.572-.35 6.901-.35 14.715 0 28.91 4.344 41.043 12.559.934.633 2.102.832 3.184.574 1.098-.266 2.027-.98 2.57-1.969l15.094-27.633c.988-1.812.438-4.078-1.273-5.234-8.289-5.598-17.441-10.117-27.203-13.438-2.051-.711-4.273.359-5.035 2.383l-.328.879-.266-2.387c-.184-1.656-1.379-3.027-2.992-3.438-9.344-2.367-18.848-3.57-28.25-3.57-30.762 0-59.643 12.027-81.322 33.871-.939.945-1.346 2.293-1.084 3.602l2.869 14.352-10.781-3.234c-1.672-.492-3.471.137-4.457 1.582-12.967 19.039-19.822 41.316-19.822 64.426 0 9.41 1.146 18.773 3.41 27.832.453 1.812 2.078 3.031 3.877 3.031.273 0 .551-.027.828-.086l35.965-7.57c1.068-.227 2-.879 2.574-1.805.576-.93.748-2.051.475-3.109-1.592-6.16-2.398-12.312-2.398-18.293 0-5.747.732-11.315 1.989-16.684l8.443 2.512c-2.36 7.105-3.686 14.676-3.686 22.563v25.699c0 17.184-5.992 33.969-16.873 47.27l-3.266 3.992c-1.004 1.227-1.188 2.926-.473 4.34.715 1.41 2.152 2.277 3.781 2.188 1.694-.092 40.927-2.405 63.766-22.087 2.958 1.73 6.354 2.794 10.021 2.794 1.191 0 2.343-.151 3.478-.352 9.938 19.09 31.856 41.497 80.288 44.344.078.004.156.008.234.008 1.07 0 2.098-.43 2.855-1.195.809-.824 1.223-1.961 1.133-3.113-.039-.516-3.988-51.934-3.988-59.691-.001-1.975-1.442-3.655-3.391-3.955zm-178.737-26.493c-1.531-7.25-2.307-14.68-2.307-22.141 0-3.893.276-7.749.69-11.578l10.855.023h.008c2.205 0 3.996-1.785 4-3.992s-1.783-4.004-3.992-4.008l-9.7-.021c2.498-13.448 7.505-26.298 14.965-37.917l14.312 4.297c1.35.402 2.805.07 3.842-.875 1.039-.945 1.506-2.363 1.23-3.742l-3.752-18.77c7.868-7.625 16.717-13.875 26.243-18.679l8.036 15.847c.705 1.391 2.113 2.191 3.572 2.191.607 0 1.225-.137 1.805-.434 1.971-.996 2.758-3.406 1.76-5.375l-7.896-15.571c1.629-.671 3.273-1.305 4.934-1.894l2.562 6.852c.6 1.605 2.125 2.598 3.746 2.598.467 0 .939-.082 1.4-.254 2.07-.773 3.119-3.078 2.346-5.148l-2.398-6.414c9.024-2.444 18.424-3.734 28.029-3.734 7.844 0 15.77.902 23.602 2.68l1.801 16.227c.207 1.84 1.645 3.301 3.48 3.527 1.812.199 3.59-.828 4.242-2.566l4.816-12.852c6.562 2.492 12.797 5.578 18.609 9.207l-11.266 20.621c-12.609-7.582-26.98-11.57-41.828-11.57-44.842 0-81.324 36.48-81.324 81.324 0 5.328.572 10.766 1.703 16.219zm38.671-46.496c8.459-23.912 28.918-42.198 54.162-47.436l3.26 10.464c-21.469 5.201-39.163 20.04-48.26 39.698zm47.456 76.942c0-6.617 5.383-12 12-12s12 5.383 12 12-5.383 12-12 12-12-5.383-12-12zm22.957 16.697c5.436-3.579 9.043-9.717 9.043-16.698 0-11.027-8.973-20-20-20s-20 8.973-20 20c0 4.433 1.498 8.494 3.948 11.814-14.422 11.905-36.426 16.66-48.829 18.459 10.297-14.105 15.924-31.25 15.924-48.77v-25.699c0-35.184 28.621-63.805 63.801-63.805 33.844 0 61.617 26.488 63.684 59.938l-54.531.062c-1.137 0-2.219.488-2.977 1.336-.758.844-1.121 1.977-.996 3.105 3.727 33.52 44.047 44.391 56.074 46.898.438 10.075 2.248 34.834 3.249 48.17l-24.948-18.709c-1.766-1.324-4.273-.969-5.598.801-1.328 1.766-.969 4.273.801 5.598l20.275 15.205c-34.161-5.563-50.828-22.641-58.92-37.705z" data-original="#000000" class="active-path" data-old_color="#000000" fill="#FFFFFF"/><circle cx="154.828" cy="201.592" r="4" data-original="#000000" class="active-path" data-old_color="#000000" fill="#FFFFFF"/><path d="m189.562 113.385c21.73 7.246 29.398 29.258 29.473 29.48.562 1.672 2.121 2.727 3.793 2.727.418 0 .844-.066 1.266-.207 2.094-.695 3.227-2.961 2.527-5.059-.352-1.059-8.926-25.996-34.527-34.527-2.117-.703-4.359.434-5.059 2.527-.699 2.098.434 4.363 2.527 5.059z" data-original="#000000" class="active-path" data-old_color="#000000" fill="#FFFFFF"/></g></g> </svg>
